<svg width="27" height="24" viewBox="0 0 27 24" fill="none" xmlns="http://www.w3.org/2000/svg">
<path d="M0 12.5081C0 5.60006 5.60006 0 12.5081 0C12.6462 0 12.7582 0.112001 12.7582 0.250162V22C12.7582 23.1046 11.8628 24 10.7582 24H0.470589C0.21069 24 0 23.7893 0 23.5294V12.5081Z" fill="#003459"/>
<path d="M14.2418 14.9C14.2418 13.7954 15.1372 12.9 16.2418 12.9H25C26.1046 12.9 27 13.7954 27 14.9V24H16.2418C15.1372 24 14.2418 23.1046 14.2418 22V14.9Z" fill="#02C39A"/>
<path d="M14.2418 0.250161C14.2418 0.112001 14.3538 0 14.4919 0H16.1176C22.1278 0 27 4.87219 27 10.8824C27 11.0026 26.9026 11.1 26.7824 11.1H16.2418C15.1372 11.1 14.2418 10.2046 14.2418 9.1V0.250161Z" fill="#028090"/>
</svg>
