<svg width="310" height="207" viewBox="0 0 310 207" fill="none" xmlns="http://www.w3.org/2000/svg">
<path d="M77.8059 29.6383H39.8867V84.692H77.8059V29.6383Z" fill="#E0E0E0"/>
<path d="M75.9045 29.6383H37.9853V84.692H75.9045V29.6383Z" fill="#F5F5F5"/>
<path d="M71.1967 35.5999H42.6973V78.7262H71.1967V35.5999Z" fill="white"/>
<path d="M71.1967 78.7304C71.1967 78.7304 71.1967 78.6559 71.1967 78.5192C71.1967 78.3826 71.1967 78.1715 71.1967 77.9065C71.1967 77.3642 71.1967 76.5693 71.1967 75.5426C71.1967 73.4726 71.1967 70.4628 71.1677 66.6581C71.1677 59.053 71.1429 48.2807 71.1223 35.6081L71.2173 35.7034H42.7221L42.8255 35.5999C42.8255 51.8701 42.8255 66.8693 42.8255 78.7304L42.7428 78.6476L63.488 78.689L69.2168 78.7097H70.7213H71.2421H70.7379H69.2499H63.5376L42.7428 78.7511H42.6601V78.6683C42.6601 66.8072 42.6601 51.808 42.6601 35.5378V35.4343H42.7676H71.2628H71.3579V35.604C71.3579 48.3138 71.3207 59.1026 71.3124 66.7244C71.3124 70.5208 71.2917 73.5223 71.2835 75.584C71.2835 76.6066 71.2835 77.3932 71.2835 77.9314C71.2835 78.1922 71.2835 78.395 71.2835 78.5317C71.2835 78.6683 71.1967 78.7304 71.1967 78.7304Z" fill="#E0E0E0"/>
<path d="M76.0161 29.6383C75.8201 29.9903 75.5933 30.3242 75.3383 30.636C74.9001 31.2239 74.2719 32.027 73.5609 32.8964C72.85 33.7658 72.1804 34.5317 71.6844 35.0782C71.4351 35.3869 71.1584 35.6724 70.8577 35.9311C71.0718 35.5952 71.3138 35.2781 71.5811 34.983L73.408 32.764L75.2267 30.5325C75.4641 30.2126 75.7282 29.9134 76.0161 29.6383Z" fill="#E0E0E0"/>
<path d="M71.3413 78.5896C72.7565 80.8397 74.4203 82.9228 76.3013 84.7996L71.3413 78.5896Z" fill="white"/>
<path d="M76.3137 84.8162C75.9957 84.5861 75.7045 84.3208 75.4457 84.0254C74.7849 83.3525 74.1586 82.6464 73.5692 81.9099C72.8831 81.0446 72.3085 80.2208 71.9159 79.6122C71.69 79.2911 71.4962 78.9486 71.3372 78.5896C71.5928 78.8852 71.8263 79.1993 72.0357 79.5294C72.4491 80.1173 73.0443 80.9204 73.7263 81.7774C74.4083 82.6344 75.0696 83.3879 75.5491 83.9261C75.8249 84.2041 76.0804 84.5015 76.3137 84.8162Z" fill="#E0E0E0"/>
<path d="M37.9812 84.6465L42.9412 78.511L37.9812 84.6465Z" fill="white"/>
<path d="M42.9495 78.511C42.2013 79.5959 41.3984 80.642 40.5439 81.645C39.7442 82.6909 38.8887 83.6929 37.9812 84.6465C38.7293 83.5615 39.5322 82.5155 40.3868 81.5125C41.1865 80.4665 42.0419 79.4646 42.9495 78.511Z" fill="#E0E0E0"/>
<path d="M37.9853 29.6383C38.8422 30.5594 39.648 31.5268 40.3992 32.5363C41.2037 33.5 41.9543 34.5076 42.6477 35.5543C41.7924 34.633 40.9879 33.6656 40.238 32.6563C39.4324 31.6924 38.6804 30.6849 37.9853 29.6383Z" fill="#E0E0E0"/>
<path d="M62.3183 44.356H52.7744V71.4937H62.3183V44.356Z" fill="#E0E0E0"/>
<path d="M128.931 21.6149V45.7263H94.3599L93.1157 21.7847L128.931 21.6149Z" fill="#E0E0E0"/>
<path d="M93.1116 21.7847V45.6725H127.683V21.7847L93.1116 21.7847Z" fill="white"/>
<path d="M127.848 45.8381H92.9504V21.6191H127.848V45.8381ZM93.2811 45.511H127.522V21.942H93.2811V45.511Z" fill="#E0E0E0"/>
<path d="M123.942 24.7531H96.8605V42.7041H123.942V24.7531Z" fill="white"/>
<path d="M123.942 24.7531H123.421H121.933H116.353L96.8605 24.84L96.9391 24.7613C96.9391 30.2468 96.9391 36.3244 96.9391 42.7124L96.8564 42.6296H123.938L123.868 42.6958C123.868 37.2352 123.897 32.7598 123.905 29.6341C123.905 28.0775 123.905 26.8603 123.905 26.024C123.905 25.61 123.905 25.2954 123.905 25.076C123.905 24.8566 123.905 24.7448 123.905 24.7448C123.905 24.7448 123.905 24.8483 123.905 25.0594C123.905 25.2706 123.905 25.5893 123.905 25.9951C123.905 26.8231 123.905 28.0402 123.926 29.5927C123.926 32.7226 123.946 37.2186 123.959 42.6958V42.7662H123.893H96.8109H96.7241V42.6793C96.7241 36.2912 96.7241 30.2137 96.7241 24.7282V24.6744H96.8027L116.349 24.7117L121.913 24.7365H123.384H123.884L123.942 24.7531Z" fill="#E0E0E0"/>
<path d="M93.1157 21.7184C93.3294 21.8214 93.5294 21.9507 93.7109 22.1035C94.0623 22.3601 94.5376 22.7245 95.0667 23.1385C95.5957 23.5525 96.0421 23.9665 96.3645 24.2438C96.549 24.3938 96.7154 24.5647 96.8605 24.7531C96.202 24.2918 95.5674 23.7971 94.9592 23.2709C94.3125 22.7931 93.6967 22.2746 93.1157 21.7184Z" fill="#E0E0E0"/>
<path d="M127.687 21.7847C127.118 22.3449 126.511 22.8637 125.868 23.3372C125.26 23.8539 124.617 24.3271 123.942 24.7531C124.511 24.1928 125.118 23.674 125.761 23.2006C126.368 22.6827 127.012 22.2095 127.687 21.7847Z" fill="#E0E0E0"/>
<path d="M127.658 45.6766L123.802 42.5468L127.658 45.6766Z" fill="white"/>
<path d="M123.802 42.5468C124.495 43.0022 125.158 43.5028 125.786 44.0455C126.446 44.5465 127.071 45.0915 127.658 45.6766C126.964 45.2239 126.302 44.7231 125.678 44.1779C125.015 43.679 124.388 43.1339 123.802 42.5468Z" fill="#E0E0E0"/>
<path d="M93.1157 45.6725C93.6774 45.1191 94.2783 44.6071 94.9137 44.1407C95.5151 43.6284 96.1518 43.1595 96.8192 42.7372C96.2593 43.2938 95.6583 43.8073 95.0212 44.2732C94.4205 44.785 93.7837 45.2526 93.1157 45.6725Z" fill="#E0E0E0"/>
<path d="M102.358 30.3462V36.3575H119.4V30.3462H102.358Z" fill="#E0E0E0"/>
<path d="M269.778 129.652C269.778 129.652 266.674 128.203 264.24 135.49C261.805 142.776 261.082 146.879 261.082 146.879C261.082 146.879 260.383 148.436 259.272 147.653C258.16 146.871 256.436 144.44 254.853 145.169C253.27 145.898 252.931 147.918 253.679 150.688C254.427 153.457 255.845 159.58 255.969 160.135C256.093 160.69 255.899 161.539 255.06 161.129C254.221 160.719 249.087 156.475 247.206 159.03C245.326 161.584 248.69 168.966 249.042 169.769C249.393 170.572 249.281 170.97 248.909 171.239C248.537 171.508 246.954 169.918 245.446 168.755C243.937 167.591 241.99 166.544 241.035 168.109C240.081 169.674 240.577 175.507 247.467 184.069L250.918 187.824L255.932 186.784C266.526 183.907 270.345 179.477 270.489 177.647C270.634 175.818 268.423 175.536 266.542 175.577C264.661 175.619 262.434 175.971 262.293 175.532C262.152 175.093 262.293 174.704 263.045 174.29C263.798 173.876 270.837 169.839 270.828 166.672C270.82 163.505 264.178 163.927 263.256 163.774C262.334 163.621 262.682 162.801 263.099 162.433C263.516 162.064 268.262 157.933 270.489 156.132C272.717 154.331 273.668 152.547 272.775 150.978C271.882 149.408 269.096 150.414 267.741 150.394C266.385 150.373 266.728 148.701 266.728 148.701C266.728 148.701 268.547 144.975 270.861 137.626C273.176 130.278 269.712 129.644 269.712 129.644" fill="#EBEBEB"/>
<path d="M250.265 188.863C251.976 183.481 255.175 173.979 257.883 165.803C260.59 157.626 263.033 150.228 264.773 144.863C265.637 142.18 266.335 140.011 266.84 138.504C267.084 137.758 267.253 137.175 267.402 136.773C267.465 136.583 267.515 136.434 267.551 136.326C267.584 136.223 267.604 136.173 267.604 136.173C267.604 136.173 267.604 136.227 267.563 136.33C267.522 136.434 267.489 136.587 267.431 136.781C267.307 137.195 267.129 137.771 266.898 138.52C266.435 140.031 265.753 142.209 264.893 144.896C263.182 150.278 260.76 157.68 258.052 165.853C255.345 174.025 252.125 183.53 250.385 188.896" fill="#E0E0E0"/>
<path d="M257.131 148.659C257.199 148.761 257.259 148.869 257.308 148.982C257.416 149.193 257.56 149.508 257.722 149.893C258.073 150.667 258.548 151.748 259.007 152.948C259.466 154.149 259.9 155.204 260.247 156.024C260.392 156.393 260.52 156.707 260.619 156.956C260.676 157.066 260.717 157.183 260.743 157.303C260.674 157.201 260.615 157.093 260.565 156.981C260.458 156.769 260.313 156.459 260.152 156.07C259.809 155.291 259.367 154.207 258.887 153.006C258.408 151.806 257.978 150.754 257.647 149.938L257.267 149.007C257.207 148.897 257.161 148.78 257.131 148.659Z" fill="#E0E0E0"/>
<path d="M261.227 157.32C261.206 157.279 263.388 156.244 266.1 155.002C268.811 153.76 271.019 152.791 271.06 152.832C271.101 152.874 268.894 153.909 266.183 155.147C263.471 156.384 261.227 157.366 261.227 157.32Z" fill="#E0E0E0"/>
<path d="M256.49 169.69C256.611 169.651 256.735 169.626 256.862 169.616L257.875 169.467C258.726 169.343 259.908 169.165 261.202 168.916C262.496 168.668 263.657 168.415 264.509 168.216L265.505 167.989C265.625 167.951 265.75 167.929 265.877 167.923C265.762 167.975 265.643 168.016 265.521 168.047C265.29 168.117 264.955 168.216 264.537 168.328C263.711 168.552 262.537 168.829 261.231 169.073C259.925 169.318 258.751 169.487 257.887 169.579C257.474 169.628 257.11 169.661 256.866 169.678C256.741 169.693 256.615 169.697 256.49 169.69Z" fill="#E0E0E0"/>
<path d="M251.075 162.665C251.165 162.739 251.245 162.824 251.315 162.917L251.923 163.646C252.431 164.263 253.121 165.124 253.878 166.08C254.634 167.037 255.316 167.906 255.8 168.544L256.366 169.301C256.44 169.391 256.505 169.488 256.56 169.591C256.469 169.518 256.389 169.433 256.32 169.338L255.713 168.614C255.204 167.993 254.514 167.136 253.754 166.18C252.993 165.223 252.319 164.35 251.836 163.716L251.269 162.959C251.193 162.869 251.128 162.77 251.075 162.665Z" fill="#E0E0E0"/>
<path d="M245.52 173.052C245.632 173.15 245.733 173.26 245.822 173.379C246.028 173.619 246.289 173.934 246.603 174.306C247.26 175.093 248.153 176.19 249.137 177.407C250.12 178.624 251.001 179.73 251.617 180.537L252.361 181.493C252.455 181.609 252.54 181.732 252.613 181.862C252.504 181.761 252.403 181.652 252.311 181.535L251.53 180.608C250.877 179.817 249.98 178.724 248.996 177.507C248.012 176.289 247.132 175.184 246.516 174.377C246.219 173.992 245.966 173.669 245.776 173.416C245.679 173.304 245.593 173.182 245.52 173.052Z" fill="#E0E0E0"/>
<path d="M252.547 181.601C252.698 181.555 252.853 181.52 253.01 181.498L254.287 181.266C255.366 181.067 256.854 180.786 258.486 180.438C260.119 180.09 261.59 179.726 262.653 179.457L263.913 179.142C264.066 179.096 264.222 179.063 264.38 179.043C264.235 179.109 264.084 179.161 263.93 179.2C263.636 179.291 263.211 179.419 262.69 179.564C261.632 179.862 260.164 180.239 258.528 180.591C256.891 180.943 255.399 181.212 254.316 181.382C253.774 181.469 253.332 181.531 253.03 181.568C252.87 181.594 252.709 181.606 252.547 181.601Z" fill="#E0E0E0"/>
<path d="M279 188.714C279 188.772 222.212 188.821 152.181 188.821C82.15 188.821 25.3621 188.784 25.3621 188.714C25.3621 188.643 82.1376 188.606 152.198 188.606C222.258 188.606 279 188.656 279 188.714Z" fill="#263238"/>
<path d="M201.441 44.6393L197.508 48.0084L202.758 54.1565L206.69 50.7874L201.441 44.6393Z" fill="#263238"/>
<path d="M204.84 44.1614L196.747 51.1248L191.072 44.5008C193.304 41.3627 195.965 38.9946 199.152 37.5374L204.84 44.1614Z" fill="#455A64"/>
<path d="M198.111 49.9574C198.065 49.9988 196.697 48.4918 195.052 46.5998C193.407 44.7078 192.109 43.1429 192.159 43.1015C192.208 43.0601 193.572 44.5671 195.217 46.4591C196.862 48.3511 198.156 49.9201 198.111 49.9574Z" fill="#263238"/>
<path d="M199.64 48.6326C199.313 48.3139 199.009 47.9721 198.731 47.61C198.185 46.9683 197.445 46.0782 196.631 45.0846L194.564 42.5343L193.944 41.7602C193.795 41.5697 193.717 41.4828 193.717 41.4704C193.8 41.3958 195.176 42.9649 196.805 44.948C197.631 45.9416 198.342 46.8482 198.871 47.5148C199.16 47.864 199.417 48.238 199.64 48.6326Z" fill="#263238"/>
<path d="M201.707 46.8648C201.375 46.5471 201.067 46.2053 200.785 45.8422C200.235 45.1922 199.491 44.2856 198.673 43.2796L196.606 40.6879L195.986 39.8972C195.906 39.8029 195.834 39.7018 195.771 39.595C196.126 39.8888 196.445 40.2237 196.722 40.5927C197.28 41.2344 198.032 42.1369 198.846 43.1429C199.661 44.149 200.392 45.0722 200.913 45.747C201.208 46.0966 201.474 46.4705 201.707 46.8648Z" fill="#263238"/>
<path d="M203.571 45.2088C203.525 45.2461 202.165 43.7267 200.533 41.814C198.9 39.9013 197.619 38.3157 197.664 38.2743C197.71 38.2329 199.065 39.7564 200.698 41.6732C202.331 43.5901 203.616 45.1715 203.571 45.2088Z" fill="#263238"/>
<path d="M270.699 48.8243L267.123 45.0769L261.284 50.6659L264.86 54.4132L270.699 48.8243Z" fill="#263238"/>
<path d="M270.87 52.5117L263.504 44.7907L269.799 38.767C273.04 40.837 275.545 43.3748 277.161 46.4881L270.87 52.5117Z" fill="#455A64"/>
<path d="M264.736 46.0865C264.695 46.0409 266.121 44.5919 267.923 42.849C269.725 41.106 271.229 39.7274 271.258 39.7688C271.287 39.8102 269.874 41.2592 268.071 43.0063C266.269 44.7534 264.777 46.1279 264.736 46.0865Z" fill="#263238"/>
<path d="M266.141 47.5562C266.435 47.2085 266.756 46.8846 267.1 46.5874C267.708 46.0078 268.559 45.2171 269.506 44.3477L271.94 42.141L272.68 41.4786C272.858 41.3213 272.945 41.2427 272.957 41.2385C273.036 41.3172 271.543 42.7786 269.65 44.5091C268.704 45.3744 267.836 46.1651 267.199 46.6992C266.87 47.0123 266.516 47.2988 266.141 47.5562Z" fill="#263238"/>
<path d="M268.009 49.5144C268.307 49.1635 268.632 48.8368 268.981 48.5373C269.597 47.9536 270.461 47.1587 271.424 46.2893L273.904 44.0786L274.66 43.4162C274.752 43.3338 274.849 43.2565 274.949 43.1843C274.676 43.5558 274.36 43.8935 274.007 44.1903C273.395 44.7824 272.531 45.5814 271.572 46.4508C270.613 47.3202 269.729 48.1068 269.092 48.6533C268.754 48.9677 268.392 49.2556 268.009 49.5144Z" fill="#263238"/>
<path d="M269.758 51.2987C269.717 51.2532 271.163 49.8166 272.986 48.082C274.809 46.3473 276.322 44.9811 276.363 45.0266C276.404 45.0722 274.958 46.5088 273.135 48.2393C271.312 49.9698 269.799 51.336 269.758 51.2987Z" fill="#263238"/>
<path d="M237.7 30.9341H231.574V40.5099H237.7V30.9341Z" fill="#263238"/>
<path d="M240.973 33.799H228.367V23.4779C232.785 22.385 237.001 22.3187 240.986 23.4779L240.973 33.799Z" fill="#028090"/>
<path d="M241.135 23.5193C240.987 23.6119 240.83 23.6895 240.667 23.7512C240.236 23.9415 239.793 24.1047 239.341 24.2397C238.663 24.4486 237.973 24.6118 237.274 24.7282C236.425 24.8632 235.567 24.9351 234.707 24.9435C233.848 24.9448 232.99 24.8811 232.14 24.753C231.442 24.6445 230.751 24.4882 230.074 24.2852C229.621 24.1526 229.177 23.9936 228.743 23.8091C228.579 23.7521 228.422 23.6757 228.276 23.5814C228.276 23.5442 228.97 23.8298 230.115 24.1362C230.787 24.3141 231.469 24.4523 232.157 24.5502C232.998 24.6642 233.846 24.7223 234.695 24.7241C235.544 24.7144 236.392 24.648 237.233 24.5253C237.918 24.4261 238.597 24.2879 239.266 24.1113C240.44 23.776 241.118 23.4821 241.135 23.5193Z" fill="#263238"/>
<path d="M232.533 33.77C232.475 33.77 232.426 31.7869 232.426 29.3443C232.426 26.9017 232.475 24.9187 232.533 24.9187C232.591 24.9187 232.641 26.8976 232.641 29.3443C232.641 31.7911 232.595 33.77 232.533 33.77Z" fill="#263238"/>
<path d="M234.935 33.8279C234.877 33.8279 234.827 31.8366 234.827 29.3816C234.827 26.9265 234.877 24.9393 234.935 24.9393C234.992 24.9393 235.042 26.9265 235.042 29.3816C235.042 31.8366 234.997 33.8279 234.935 33.8279Z" fill="#263238"/>
<path d="M237.336 33.7907C237.278 33.7907 237.229 31.7993 237.229 29.3443C237.229 26.8893 237.278 24.8979 237.336 24.8979C237.394 24.8979 237.443 26.8893 237.443 29.3443C237.443 31.7993 237.398 33.7907 237.336 33.7907Z" fill="#263238"/>
<path d="M239.32 33.7907C239.258 33.7907 239.213 31.6379 239.213 28.9841C239.213 26.3304 239.258 24.1776 239.32 24.1776C239.382 24.1776 239.427 26.3304 239.427 28.9841C239.427 31.6379 239.394 33.7907 239.32 33.7907Z" fill="#263238"/>
<path d="M230.264 33.7286C230.206 33.7286 230.156 31.5758 230.156 28.922C230.156 26.2683 230.206 24.1155 230.264 24.1155C230.322 24.1155 230.371 26.2683 230.371 28.922C230.371 31.5758 230.326 33.7286 230.264 33.7286Z" fill="#263238"/>
<path d="M265.412 113.755C282.818 96.3218 282.818 68.0563 265.412 50.6227C248.007 33.189 219.787 33.1891 202.381 50.6227C184.976 68.0563 184.976 96.3218 202.381 113.755C219.787 131.189 248.007 131.189 265.412 113.755Z" fill="#028090"/>
<path d="M233.897 119.327C254.57 119.327 271.329 102.542 271.329 81.8354C271.329 61.1292 254.57 44.3435 233.897 44.3435C213.224 44.3435 196.466 61.1292 196.466 81.8354C196.466 102.542 213.224 119.327 233.897 119.327Z" fill="#FAFAFA"/>
<path d="M271.329 81.8354C271.329 81.8354 271.329 81.6325 271.3 81.2309C271.271 80.8294 271.3 80.229 271.221 79.4466C271.074 77.1637 270.717 74.8992 270.155 72.6818C269.75 71.0814 269.237 69.5102 268.621 67.9788C267.897 66.153 267.026 64.3891 266.017 62.7044C263.549 58.5887 260.323 54.9796 256.511 52.0688C251.884 48.543 246.498 46.1499 240.783 45.0805C235.939 44.1878 230.969 44.2454 226.147 45.2502C224.454 45.6184 222.786 46.0954 221.154 46.6785C214.209 49.2123 208.169 53.7485 203.794 59.7154C202.652 61.2692 201.635 62.911 200.752 64.6254C200.293 65.4824 199.9 66.3725 199.512 67.2667C199.123 68.161 198.776 69.0883 198.483 70.0322C197.848 71.9212 197.373 73.8599 197.061 75.8282C196.747 77.8183 196.583 79.829 196.569 81.8437C196.583 83.8595 196.746 85.8714 197.057 87.8632C197.373 89.8306 197.849 91.7689 198.479 93.6592C198.776 94.599 199.148 95.5098 199.508 96.4206C199.867 97.3314 200.301 98.2091 200.748 99.066C201.631 100.781 202.65 102.423 203.794 103.976C208.168 109.945 214.208 114.483 221.154 117.017C222.786 117.6 224.454 118.077 226.147 118.445C227.798 118.791 229.47 119.025 231.153 119.145C234.372 119.389 237.61 119.211 240.783 118.615C246.498 117.546 251.884 115.153 256.511 111.627C260.324 108.717 263.55 105.108 266.017 100.991C267.025 99.3061 267.896 97.5422 268.621 95.7168C270.089 92.0564 270.967 88.1855 271.221 84.249C271.291 83.4665 271.279 82.8662 271.3 82.4647C271.32 82.0631 271.329 81.8561 271.329 81.8561C271.329 81.8561 271.329 82.0631 271.329 82.4647C271.329 82.8662 271.329 83.4665 271.271 84.249C271.044 88.1965 270.183 92.0815 268.72 95.754C268.001 97.5883 267.132 99.3605 266.125 101.053C263.662 105.19 260.436 108.819 256.618 111.747C251.975 115.294 246.568 117.704 240.829 118.785C237.641 119.388 234.388 119.572 231.153 119.331C229.462 119.211 227.781 118.978 226.122 118.632C224.419 118.265 222.741 117.786 221.1 117.199C214.114 114.656 208.038 110.096 203.637 104.096C202.488 102.535 201.466 100.885 200.578 99.1613C200.115 98.3002 199.719 97.3976 199.313 96.4992C198.908 95.6009 198.578 94.6694 198.28 93.7213C197.646 91.8232 197.168 89.8765 196.85 87.9005C196.194 83.8921 196.194 79.8035 196.85 75.7951C197.169 73.8275 197.648 71.8892 198.28 69.9991C198.582 69.0511 198.954 68.1361 199.318 67.2212C199.681 66.3062 200.115 65.4244 200.578 64.5633C201.469 62.8405 202.493 61.1905 203.641 59.6284C208.04 53.6291 214.115 49.0707 221.1 46.5295C222.74 45.9431 224.416 45.4646 226.118 45.097C227.779 44.7515 229.461 44.5177 231.153 44.3974C234.387 44.1568 237.638 44.3405 240.825 44.9438C246.565 46.0197 251.973 48.4303 256.614 51.9818C260.431 54.9117 263.658 58.5421 266.121 62.6796C267.972 65.8028 269.364 69.1772 270.254 72.6984C270.805 74.9235 271.15 77.1951 271.283 79.4839C271.345 80.2663 271.324 80.8666 271.341 81.2682C271.357 81.6698 271.329 81.8354 271.329 81.8354Z" fill="#263238"/>
<path d="M265.835 80.4774C264.649 80.5271 263.682 80.4774 263.678 80.3739C263.674 80.2704 264.628 80.1297 265.815 80.0634C267.001 79.9972 267.968 80.0386 267.976 80.1628C267.985 80.287 267.013 80.4278 265.835 80.4774Z" fill="#263238"/>
<path d="M265.038 89.1094C263.88 88.8361 262.971 88.5339 262.971 88.4304C262.971 88.3269 263.955 88.4511 265.116 88.7036C266.278 88.9562 267.183 89.2625 267.183 89.3826C267.183 89.5027 266.187 89.3785 265.038 89.1094Z" fill="#263238"/>
<path d="M261.95 97.2031C260.904 96.6317 260.102 96.0894 260.152 95.9983C260.202 95.9072 261.094 96.284 262.144 96.8263C263.194 97.3687 264 97.9276 263.942 98.0352C263.884 98.1428 262.992 97.7785 261.95 97.2031Z" fill="#263238"/>
<path d="M256.804 104.175C255.953 103.347 255.32 102.61 255.395 102.519C255.469 102.428 256.221 103.045 257.089 103.864C257.957 104.684 258.581 105.417 258.499 105.52C258.416 105.624 257.651 105.007 256.804 104.175Z" fill="#263238"/>
<path d="M249.984 109.515C249.389 108.485 248.975 107.607 249.066 107.553C249.157 107.499 249.728 108.286 250.339 109.304C250.951 110.323 251.365 111.2 251.261 111.267C251.158 111.333 250.583 110.538 249.984 109.515Z" fill="#263238"/>
<path d="M241.986 112.823C241.688 111.668 241.527 110.712 241.631 110.687C241.734 110.662 242.069 111.569 242.387 112.716C242.705 113.862 242.862 114.819 242.742 114.852C242.623 114.885 242.284 113.974 241.986 112.823Z" fill="#263238"/>
<path d="M233.393 113.85C233.393 112.658 233.513 111.693 233.616 111.693C233.719 111.693 233.806 112.662 233.806 113.85C233.806 115.038 233.703 116.007 233.583 116.007C233.463 116.007 233.372 115.046 233.393 113.85Z" fill="#263238"/>
<path d="M224.853 112.554C225.192 111.412 225.548 110.513 225.651 110.542C225.754 110.571 225.573 111.523 225.238 112.67C224.903 113.817 224.56 114.74 224.44 114.682C224.32 114.624 224.494 113.697 224.853 112.554Z" fill="#263238"/>
<path d="M216.946 108.99C217.579 107.984 218.161 107.209 218.252 107.263C218.343 107.317 217.913 108.191 217.298 109.209C216.682 110.227 216.095 110.998 215.991 110.935C215.888 110.873 216.314 110 216.946 108.99Z" fill="#263238"/>
<path d="M210.296 103.442C211.176 102.639 211.949 102.051 212.015 102.13C212.081 102.208 211.445 102.929 210.577 103.744C209.709 104.56 208.944 105.148 208.857 105.061C208.771 104.974 209.419 104.245 210.296 103.442Z" fill="#263238"/>
<path d="M205.369 96.313C206.431 95.7789 207.332 95.4187 207.378 95.5098C207.423 95.6009 206.613 96.1267 205.559 96.6814C204.505 97.2362 203.608 97.5964 203.55 97.4846C203.492 97.3728 204.311 96.8512 205.369 96.313Z" fill="#263238"/>
<path d="M202.533 88.124C203.703 87.8922 204.666 87.7887 204.687 87.8922C204.707 87.9957 203.782 88.2813 202.62 88.5298C201.459 88.7782 200.491 88.8817 200.467 88.7616C200.442 88.6415 201.376 88.3559 202.533 88.124Z" fill="#263238"/>
<path d="M202.008 79.488C203.195 79.5749 204.149 79.7322 204.145 79.8357C204.141 79.9392 203.17 79.9682 201.984 79.8979C200.797 79.8275 199.838 79.6743 199.847 79.5501C199.855 79.4259 200.822 79.3803 202.008 79.488Z" fill="#263238"/>
<path d="M203.806 70.9886C204.927 71.4026 205.803 71.8166 205.77 71.9035C205.737 71.9905 204.794 71.7669 203.67 71.3777C202.546 70.9886 201.669 70.5829 201.707 70.4669C201.744 70.351 202.69 70.5829 203.806 70.9886Z" fill="#263238"/>
<path d="M207.82 63.3089C208.787 64.0002 209.523 64.6295 209.473 64.7165C209.424 64.8034 208.572 64.3232 207.593 63.6484C206.613 62.9735 205.877 62.3442 205.939 62.2407C206.001 62.1372 206.849 62.6175 207.82 63.3089Z" fill="#263238"/>
<path d="M213.735 56.983C214.483 57.9062 215.024 58.7093 214.946 58.7797C214.867 58.8501 214.177 58.1587 213.416 57.2438C212.656 56.3288 212.11 55.5298 212.205 55.4512C212.3 55.3725 212.987 56.0597 213.735 56.983Z" fill="#263238"/>
<path d="M221.133 52.4704C221.605 53.5633 221.915 54.4824 221.815 54.5404C221.716 54.5983 221.245 53.7372 220.757 52.6525C220.269 51.5678 219.959 50.6488 220.071 50.5825C220.183 50.5163 220.65 51.3815 221.133 52.4704Z" fill="#263238"/>
<path d="M229.458 50.123C229.619 51.3029 229.669 52.2716 229.561 52.2882C229.454 52.3047 229.226 51.3608 229.049 50.1851C228.871 49.0093 228.821 48.0364 228.941 48.0198C229.061 48.0033 229.297 48.9431 229.458 50.123Z" fill="#263238"/>
<path d="M238.113 50.094C237.956 51.2739 237.745 52.222 237.642 52.2095C237.539 52.1971 237.563 51.2242 237.704 50.0443C237.844 48.8644 238.055 47.9122 238.175 47.9288C238.295 47.9453 238.27 48.91 238.113 50.094Z" fill="#263238"/>
<path d="M246.458 52.3834C245.991 53.4805 245.532 54.3334 245.433 54.292C245.334 54.2506 245.627 53.3273 246.078 52.222C246.529 51.1166 246.991 50.2679 247.103 50.3176C247.215 50.3672 246.929 51.2905 246.458 52.3834Z" fill="#263238"/>
<path d="M253.882 56.8422C253.138 57.7737 252.468 58.4734 252.385 58.4071C252.303 58.3409 252.828 57.5253 253.559 56.5855C254.291 55.6457 254.956 54.9295 255.056 55.0247C255.155 55.12 254.613 55.9148 253.882 56.8422Z" fill="#263238"/>
<path d="M259.846 63.1267C258.879 63.8222 258.048 64.319 257.986 64.2321C257.924 64.1451 258.647 63.5034 259.602 62.7914C260.557 62.0793 261.388 61.5866 261.462 61.686C261.537 61.7853 260.813 62.4312 259.846 63.1267Z" fill="#263238"/>
<path d="M263.909 70.794C262.793 71.208 261.843 71.4523 261.818 71.357C261.793 71.2618 262.644 70.8312 263.765 70.4048C264.885 69.9784 265.806 69.7259 265.852 69.8418C265.897 69.9577 265.025 70.38 263.909 70.794Z" fill="#263238"/>
<path d="M265.773 79.2479C264.587 79.3431 263.62 79.3348 263.612 79.2479C263.603 79.1609 264.554 78.9705 265.736 78.8339C266.918 78.6973 267.89 78.7304 267.898 78.8546C267.906 78.9788 266.947 79.1527 265.773 79.2479Z" fill="#263238"/>
<path d="M219.36 41.2758L219.232 41.3337L218.852 41.4869C218.521 41.6277 218.025 41.7974 217.393 42.0748C215.611 42.8209 213.881 43.6853 212.214 44.6623C211.155 45.275 210.035 46.0078 208.857 46.8317C207.679 47.6555 206.477 48.616 205.274 49.6965C199.993 54.3587 195.959 60.269 193.539 66.89C192.973 68.4052 192.547 69.8873 192.179 71.2742C191.811 72.6611 191.563 73.9859 191.377 75.1948C191.076 77.1048 190.9 79.0328 190.853 80.966C190.819 81.6532 190.853 82.1831 190.853 82.5433C190.853 82.7172 190.853 82.8497 190.853 82.9573C190.856 83.0042 190.856 83.0512 190.853 83.0981C190.847 83.0527 190.847 83.0068 190.853 82.9614C190.853 82.8579 190.853 82.7213 190.853 82.5474C190.853 82.1873 190.807 81.6573 190.828 80.9701C190.843 79.0296 190.996 77.0927 191.287 75.1741C191.46 73.957 191.729 72.6363 192.064 71.2328C192.437 69.741 192.887 68.2694 193.411 66.8237C195.819 60.1584 199.877 54.2141 205.203 49.5475C206.415 48.467 207.646 47.5355 208.812 46.6868C209.977 45.8381 211.127 45.1343 212.197 44.5298C213.875 43.5629 215.62 42.7163 217.417 41.9961C218.05 41.7312 218.558 41.5821 218.897 41.4455L219.286 41.313C219.31 41.2988 219.334 41.2864 219.36 41.2758Z" fill="white"/>
<path d="M231.801 38.858C231.376 38.9464 230.945 39.0032 230.512 39.0278C229.71 39.1106 228.611 39.2306 227.395 39.3879C226.18 39.5453 225.085 39.7109 224.291 39.8351C223.866 39.9226 223.435 39.978 223.002 40.0007C223.413 39.8571 223.836 39.7518 224.266 39.686C225.056 39.5246 226.151 39.3341 227.366 39.1768C228.582 39.0195 229.693 38.9201 230.499 38.8746C230.932 38.8283 231.368 38.8227 231.801 38.858Z" fill="white"/>
<g opacity="0.4">
<path opacity="0.4" d="M203.98 104.374C203.98 104.374 223.378 135.034 253.468 119.331C284.882 102.937 267.522 65.3582 267.522 65.3582C267.522 65.3582 282.303 95.3069 251.683 114.831C244.057 119.696 235.753 119.7 229.421 119.062C213.239 117.439 203.98 104.374 203.98 104.374Z" fill="black"/>
</g>
<path d="M244.33 61.9095C244.516 67.4083 244.35 72.9134 243.834 78.3909C243.643 80.3739 243.42 82.3777 242.656 84.22C241.891 86.0623 240.589 87.7514 238.754 88.5297C236.919 89.3081 234.571 88.9851 233.294 87.4616L244.33 61.9095Z" fill="#E0E0E0"/>
<path d="M233.083 78.8794L246.686 55.9355L238.477 81.8395L234.281 83.0939L233.083 78.8794Z" fill="#028090"/>
<g opacity="0.4">
<path opacity="0.4" d="M246.686 55.9355L236.596 79.3804L238.477 81.8395L246.686 55.9355Z" fill="black"/>
</g>
<path d="M234.281 87.4782C236.699 87.4782 238.659 85.5153 238.659 83.0939C238.659 80.6726 236.699 78.7097 234.281 78.7097C231.864 78.7097 229.904 80.6726 229.904 83.0939C229.904 85.5153 231.864 87.4782 234.281 87.4782Z" fill="#FAFAFA"/>
<path d="M238.659 83.0939C238.619 82.7376 238.56 82.3837 238.481 82.0341C238.227 81.0898 237.666 80.2577 236.885 79.6701C236.312 79.2381 235.64 78.9568 234.93 78.852C234.22 78.7471 233.496 78.822 232.822 79.0698C232.435 79.2073 232.071 79.4042 231.744 79.6536C231.395 79.9067 231.09 80.2142 230.838 80.5644C230.301 81.298 230.011 82.1841 230.011 83.0939C230.011 84.0037 230.301 84.8899 230.838 85.6235C231.34 86.3055 232.03 86.8263 232.822 87.1221C233.388 87.3299 233.991 87.417 234.592 87.3778C235.193 87.3385 235.779 87.1739 236.313 86.8944C236.847 86.6149 237.317 86.2268 237.693 85.7548C238.068 85.2828 238.341 84.7375 238.493 84.1538C238.573 83.8043 238.633 83.4504 238.671 83.0939C238.697 83.4569 238.665 83.8216 238.576 84.1745C238.35 85.1616 237.789 86.0396 236.989 86.6585C236.44 87.0851 235.799 87.3759 235.116 87.5072C234.332 87.6574 233.521 87.5945 232.769 87.325C232.36 87.1837 231.976 86.9783 231.632 86.7164C231.266 86.4518 230.946 86.1303 230.681 85.7642C230.112 84.9969 229.805 84.0664 229.805 83.1105C229.805 82.1546 230.112 81.2241 230.681 80.4567C230.947 80.0916 231.267 79.7703 231.632 79.5045C231.978 79.2464 232.361 79.0426 232.769 78.9001C233.521 78.6286 234.332 78.5657 235.116 78.7179C235.95 78.8784 236.72 79.2762 237.333 79.8636C237.947 80.451 238.378 81.2032 238.576 82.0299C238.659 82.3781 238.686 82.7371 238.659 83.0939Z" fill="#263238"/>
<path d="M237.488 83.7512C237.845 81.9852 236.704 80.2642 234.941 79.9071C233.178 79.5501 231.46 80.6922 231.103 82.4582C230.747 84.2242 231.887 85.9453 233.65 86.3023C235.413 86.6594 237.132 85.5172 237.488 83.7512Z" fill="#455A64"/>
<path d="M199.772 188.324H221.307L211.267 101.658L199.772 188.324Z" fill="#E0E0E0"/>
<path d="M93.8101 101.658L79.7899 189.347L199.429 190.908L211.267 101.658H93.8101Z" fill="#FAFAFA"/>
<path d="M205.939 141.828H87.3869L89.9661 125.682H208.08L205.939 141.828Z" fill="#EBEBEB"/>
<path d="M205.947 141.841H87.3745L89.9579 125.695H208.093L205.947 141.841ZM87.3993 141.82H205.931L208.068 125.674H89.9785L87.3993 141.82Z" fill="#263238"/>
<path d="M93.8102 101.658L89.9662 125.682H208.08L211.267 101.658H93.8102Z" fill="#028090"/>
<path d="M93.8267 101.658L211.284 101.558H211.395V101.67C207.936 127.798 204.009 157.428 199.859 188.722V188.817H198.421L79.8891 188.784H79.7733V188.68L93.8267 101.658C93.7109 102.378 88.3707 135.999 79.9924 188.722L79.9056 188.618H198.392H199.735L199.632 188.709C203.786 157.415 207.721 127.789 211.205 101.662L211.3 101.769L93.8267 101.658Z" fill="#263238"/>
<path d="M208.08 125.682C208.08 125.74 181.627 125.79 149.027 125.79C116.428 125.79 89.9662 125.74 89.9662 125.682C89.9662 125.624 116.419 125.574 149.027 125.574C181.635 125.574 208.08 125.62 208.08 125.682Z" fill="#263238"/>
<path d="M205.939 141.828C205.939 141.89 179.345 141.936 146.551 141.936C113.758 141.936 87.1596 141.89 87.1596 141.828C87.1596 141.766 113.745 141.72 146.551 141.72C179.358 141.72 205.939 141.77 205.939 141.828Z" fill="#263238"/>
<path d="M203.525 156.687C203.525 156.749 176.936 156.794 144.142 156.794C111.348 156.794 84.7333 156.749 84.7333 156.687C84.7333 156.624 111.319 156.579 144.125 156.579C176.931 156.579 203.525 156.629 203.525 156.687Z" fill="#263238"/>
<path d="M201.116 171.545C201.116 171.603 174.522 171.653 141.728 171.653C108.934 171.653 82.336 171.603 82.336 171.545C82.336 171.487 108.922 171.437 141.728 171.437C174.534 171.437 201.116 171.487 201.116 171.545Z" fill="#263238"/>
<path d="M96.5836 188.842C96.5257 188.842 98.6957 174.683 101.436 157.245C104.177 139.808 106.437 125.67 106.495 125.682C106.553 125.695 104.383 139.833 101.647 157.279C98.9107 174.725 96.6456 188.85 96.5836 188.842Z" fill="#263238"/>
<path d="M114.865 188.842C114.803 188.842 116.977 174.683 119.714 157.245C122.45 139.808 124.715 125.67 124.777 125.682C124.839 125.695 122.665 139.833 119.925 157.279C117.184 174.725 114.907 188.85 114.865 188.842Z" fill="#263238"/>
<path d="M131.853 188.209C131.795 188.209 133.945 174.195 136.652 156.931C139.359 139.667 141.612 125.67 141.666 125.682C141.72 125.695 139.574 139.692 136.867 156.964C134.16 174.236 131.907 188.217 131.853 188.209Z" fill="#263238"/>
<path d="M148.655 188.709C148.597 188.709 150.763 174.58 153.495 157.179C156.228 139.779 158.489 125.67 158.546 125.682C158.604 125.695 156.438 139.804 153.706 157.212C150.974 174.621 148.713 188.718 148.655 188.709Z" fill="#263238"/>
<path d="M165.54 188.709C165.482 188.709 167.648 174.58 170.38 157.179C173.112 139.779 175.373 125.67 175.431 125.682C175.489 125.695 173.327 139.804 170.595 157.212C167.863 174.621 165.602 188.718 165.54 188.709Z" fill="#263238"/>
<path d="M182.412 188.784C182.354 188.784 184.524 174.638 187.261 157.208C189.997 139.779 192.258 125.653 192.32 125.666C192.382 125.678 190.208 139.808 187.471 157.241C184.735 174.675 182.47 188.809 182.412 188.784Z" fill="#263238"/>
<g opacity="0.2">
<path opacity="0.2" d="M171.79 126.808C173.823 125.906 175.096 123.786 175.621 121.621C176.146 119.456 176.063 117.195 176.142 114.964C176.221 112.732 176.485 110.434 177.622 108.518C178.295 107.387 179.242 106.448 179.99 105.359C180.738 104.27 181.292 102.945 181.015 101.633L168.293 101.699L171.79 126.808Z" fill="black"/>
</g>
<path d="M119.04 143.025C119.006 143.08 118.964 143.13 118.916 143.174L118.536 143.588C118.201 143.931 117.709 144.416 117.089 145.02C115.849 146.212 114.125 147.835 112.162 149.574C110.199 151.313 108.38 152.828 107.045 153.904C106.375 154.443 105.83 154.873 105.45 155.146L105.007 155.478C104.958 155.521 104.902 155.556 104.842 155.581C104.842 155.581 104.887 155.527 104.978 155.445L105.392 155.08L106.942 153.768C108.256 152.663 110.058 151.127 112.017 149.396C113.977 147.666 115.737 146.059 116.977 144.896L118.47 143.517L118.883 143.149C118.93 143.101 118.983 143.059 119.04 143.025Z" fill="#263238"/>
<path d="M118.085 155.747C117.91 155.593 117.745 155.427 117.593 155.25L116.3 153.867C115.184 152.679 113.687 151.081 112.038 149.313L107.731 144.801L106.425 143.43C106.26 143.267 106.107 143.093 105.966 142.909C106.153 143.047 106.328 143.202 106.487 143.372C106.809 143.679 107.272 144.13 107.839 144.693C108.971 145.819 110.517 147.396 112.191 149.168C113.865 150.94 115.353 152.571 116.411 153.768C116.94 154.364 117.366 154.853 117.651 155.192C117.813 155.363 117.958 155.549 118.085 155.747Z" fill="#263238"/>
<path d="M122.5 146.829C122.5 146.829 122.541 146.722 122.628 146.51C122.765 146.204 122.931 145.912 123.124 145.637C123.884 144.573 124.956 143.773 126.191 143.348C127.075 143.027 128.019 142.903 128.956 142.983C130.072 143.092 131.147 143.459 132.097 144.055C133.194 144.732 134.12 145.653 134.805 146.746C135.596 147.967 135.99 149.403 135.933 150.857C135.885 151.642 135.642 152.402 135.226 153.068C134.79 153.759 134.209 154.347 133.523 154.79C132.063 155.728 130.344 156.179 128.613 156.078C127.706 156.029 126.813 155.835 125.967 155.503C125.088 155.159 124.297 154.621 123.653 153.929C123.333 153.566 123.063 153.16 122.851 152.725C122.649 152.28 122.51 151.809 122.438 151.325C122.3 150.335 122.387 149.326 122.69 148.373C123.322 146.387 124.692 144.719 126.517 143.716C127.463 143.195 128.516 142.899 129.594 142.849C130.673 142.8 131.748 142.999 132.738 143.43C133.763 143.863 134.661 144.551 135.346 145.43C136.032 146.332 136.46 147.404 136.586 148.531C136.729 149.674 136.544 150.834 136.053 151.876C135.8 152.399 135.469 152.879 135.069 153.3C134.663 153.715 134.204 154.075 133.705 154.372C132.698 154.928 131.589 155.269 130.444 155.376C129.3 155.483 128.146 155.353 127.055 154.993C125.98 154.663 124.991 154.097 124.161 153.337C123.338 152.577 122.775 151.576 122.553 150.477C122.32 149.396 122.474 148.268 122.987 147.289C123.248 146.806 123.605 146.383 124.037 146.047C124.463 145.725 124.937 145.475 125.443 145.306C126.435 144.987 127.476 144.847 128.518 144.892C129.532 144.899 130.54 145.038 131.519 145.306C132.486 145.561 133.379 146.04 134.127 146.705C134.843 147.374 135.331 148.252 135.524 149.214C135.714 150.144 135.658 151.107 135.363 152.008C135.07 152.878 134.576 153.665 133.92 154.306C132.675 155.525 131.026 156.244 129.287 156.326C128.472 156.369 127.658 156.251 126.889 155.979C126.151 155.714 125.488 155.275 124.955 154.699C124.45 154.15 124.068 153.5 123.835 152.791C123.604 152.126 123.502 151.424 123.533 150.721C123.592 149.419 124.11 148.181 124.996 147.227C125.753 146.397 126.711 145.776 127.778 145.426C128.673 145.134 129.621 145.043 130.555 145.161C131.846 145.321 133.073 145.817 134.114 146.597C134.385 146.797 134.64 147.015 134.879 147.252C135.04 147.413 135.119 147.5 135.119 147.5C135.119 147.5 135.028 147.421 134.867 147.268C134.621 147.04 134.361 146.827 134.089 146.631C133.046 145.873 131.827 145.395 130.547 145.244C129.538 145.127 128.516 145.254 127.566 145.614C126.616 145.974 125.766 146.557 125.087 147.314C124.224 148.247 123.722 149.458 123.669 150.729C123.641 151.418 123.744 152.107 123.971 152.758C124.201 153.445 124.575 154.076 125.066 154.608C125.584 155.166 126.228 155.592 126.943 155.85C127.693 156.111 128.486 156.224 129.278 156.181C130.976 156.098 132.584 155.392 133.796 154.198C134.429 153.578 134.907 152.816 135.189 151.975C135.472 151.104 135.523 150.173 135.338 149.276C135.152 148.352 134.682 147.51 133.994 146.866C133.267 146.226 132.401 145.764 131.465 145.517C130.503 145.253 129.511 145.114 128.514 145.103C127.497 145.064 126.481 145.205 125.513 145.517C124.525 145.82 123.689 146.487 123.173 147.384C122.684 148.32 122.538 149.398 122.76 150.431C122.974 151.487 123.517 152.448 124.31 153.176C125.114 153.92 126.075 154.475 127.121 154.799C128.183 155.149 129.306 155.276 130.42 155.172C131.534 155.068 132.614 154.735 133.593 154.194C134.077 153.91 134.521 153.562 134.912 153.159C135.296 152.755 135.615 152.295 135.859 151.793C136.334 150.788 136.513 149.668 136.375 148.564C136.257 147.476 135.847 146.44 135.189 145.567C134.527 144.717 133.659 144.052 132.668 143.633C131.707 143.213 130.663 143.019 129.616 143.066C128.57 143.114 127.547 143.401 126.629 143.906C124.855 144.885 123.524 146.507 122.909 148.44C122.614 149.364 122.528 150.343 122.657 151.305C122.731 151.772 122.87 152.226 123.07 152.654C123.275 153.073 123.533 153.462 123.839 153.813C124.462 154.483 125.228 155.004 126.079 155.337C126.906 155.664 127.779 155.857 128.667 155.908C130.361 156.012 132.045 155.577 133.478 154.666C134.14 154.26 134.698 153.704 135.106 153.042C135.515 152.381 135.763 151.632 135.83 150.857C135.887 149.435 135.505 148.03 134.734 146.833C134.065 145.754 133.157 144.843 132.081 144.171C131.148 143.58 130.091 143.213 128.993 143.099C128.07 143.011 127.139 143.127 126.265 143.439C125.041 143.853 123.974 144.633 123.206 145.674C123.009 145.944 122.837 146.233 122.694 146.535C122.553 146.726 122.5 146.829 122.5 146.829Z" fill="#028090"/>
<path d="M133.697 158.26C133.734 158.305 130.456 161.112 126.373 164.532C122.289 167.952 118.933 170.68 118.908 170.634C118.883 170.589 122.148 167.782 126.232 164.366C130.316 160.951 133.66 158.214 133.697 158.26Z" fill="#263238"/>
<path d="M134.412 170.266C134.217 170.151 134.033 170.02 133.862 169.872L132.407 168.738C131.188 167.769 129.514 166.42 127.67 164.921C125.827 163.422 124.169 162.056 122.975 161.058L121.565 159.866C121.387 159.729 121.221 159.577 121.069 159.411C121.263 159.527 121.447 159.658 121.619 159.804L123.07 160.938C124.289 161.907 125.963 163.257 127.807 164.755C129.65 166.254 131.308 167.62 132.506 168.618L133.912 169.806C134.089 169.947 134.256 170.101 134.412 170.266Z" fill="#263238"/>
<path d="M168.202 158.421C168.235 158.467 165.102 160.872 161.196 163.803C157.29 166.734 154.099 169.049 154.062 168.999C154.025 168.949 157.162 166.548 161.068 163.617C164.974 160.686 168.165 158.372 168.202 158.421Z" fill="#263238"/>
<path d="M169.417 168.606C169.388 168.655 166.057 166.589 161.977 163.985C157.897 161.381 154.628 159.237 154.657 159.183C154.686 159.129 158.017 161.203 162.097 163.803C166.177 166.403 169.467 168.556 169.417 168.606Z" fill="#263238"/>
<path d="M134.234 188.714C134.189 188.672 137.446 185.253 141.505 181.084C145.564 176.915 148.891 173.557 148.945 173.598C148.998 173.64 145.733 177.06 141.674 181.233C137.615 185.406 134.275 188.755 134.234 188.714Z" fill="#028090"/>
<path d="M148.002 188.709C148.002 188.709 147.949 188.664 147.866 188.565L147.519 188.151C147.196 187.737 146.766 187.203 146.241 186.548C145.163 185.199 143.633 183.365 141.86 181.415C140.087 179.465 138.405 177.772 137.165 176.571L135.693 175.122L135.28 174.733C135.232 174.689 135.189 174.641 135.152 174.588C135.152 174.588 135.214 174.621 135.309 174.7L135.722 175.06C136.09 175.375 136.611 175.842 137.247 176.43C138.512 177.606 140.215 179.287 141.997 181.241C143.778 183.195 145.303 185.05 146.337 186.424C146.866 187.111 147.283 187.666 147.577 188.08L147.895 188.536C147.938 188.589 147.974 188.647 148.002 188.709Z" fill="#028090"/>
<path d="M114.167 171.297C114.167 171.297 114.299 181.469 111.736 187.559L96.1165 184.892C96.1165 184.892 100.82 175.254 99.539 169.897L114.167 171.297Z" fill="#EBEBEB"/>
<path d="M114.163 170.916C114.163 170.916 112.203 183.402 111.005 187.128L95.48 184.04C95.48 184.04 98.6751 171.967 98.6337 168.606L114.163 170.916Z" fill="#028090"/>
<path d="M100.209 174.203C100.209 174.261 102.515 174.799 105.388 175.404C108.26 176.008 110.596 176.451 110.608 176.397C110.62 176.343 108.302 175.801 105.429 175.197C102.556 174.592 100.221 174.145 100.209 174.203Z" fill="white"/>
<path d="M99.8117 176.848C99.8117 176.906 102.118 177.44 104.991 178.049C107.863 178.658 110.199 179.096 110.211 179.043C110.224 178.989 107.905 178.446 105.032 177.842C102.159 177.238 99.8241 176.778 99.8117 176.848Z" fill="white"/>
<path d="M102.093 179.842C102.358 179.957 102.636 180.04 102.92 180.09C103.453 180.218 104.193 180.388 105.007 180.562C105.822 180.736 106.57 180.877 107.111 180.976C107.4 181.049 107.698 181.085 107.996 181.084C107.721 180.968 107.434 180.883 107.14 180.831C106.611 180.699 105.871 180.529 105.053 180.359C104.234 180.189 103.49 180.04 102.953 179.945C102.672 179.876 102.383 179.841 102.093 179.842Z" fill="white"/>
<path d="M188.067 142.735C188.067 142.735 189.666 152.646 188.046 158.968L172.405 158.632C172.405 158.632 175.605 148.539 173.575 143.492L188.067 142.735Z" fill="#EBEBEB"/>
<path d="M187.996 142.362C187.996 142.362 187.893 154.828 187.261 158.632L171.649 157.891C171.649 157.891 173.017 145.637 172.476 142.362H187.996Z" fill="#455A64"/>
<path d="M174.691 147.91C174.691 147.968 177.039 148.017 179.936 148.022C182.834 148.026 185.186 147.984 185.186 147.926C185.186 147.868 182.838 147.819 179.936 147.815C177.035 147.81 174.691 147.852 174.691 147.91Z" fill="white"/>
<path d="M174.84 150.547C174.84 150.605 177.188 150.655 180.085 150.659C182.983 150.663 185.335 150.621 185.335 150.564C185.335 150.506 182.987 150.456 180.085 150.452C177.184 150.448 174.84 150.489 174.84 150.547Z" fill="white"/>
<path d="M177.638 152.977C177.926 153.039 178.22 153.065 178.515 153.056C179.056 153.056 179.804 153.085 180.631 153.089C181.457 153.093 182.201 153.089 182.743 153.06C183.037 153.072 183.331 153.048 183.619 152.99C183.331 152.928 183.037 152.903 182.743 152.915C182.201 152.894 181.457 152.882 180.631 152.878C179.804 152.874 179.056 152.878 178.515 152.907C178.221 152.895 177.926 152.919 177.638 152.977Z" fill="white"/>
<path d="M191.373 114.156C188.455 114.156 185.516 112.322 183.971 109.437C182.468 106.563 182.002 103.258 182.652 100.08C183.508 95.9404 186.244 92.5456 189.625 91.4609C192.498 90.5377 197.631 91.0469 200.053 95.1082C201.207 97.0942 201.78 99.3652 201.707 101.662C201.696 101.825 201.653 101.984 201.581 102.131C201.508 102.277 201.408 102.408 201.285 102.516C201.162 102.623 201.019 102.706 200.865 102.758C200.71 102.811 200.547 102.832 200.384 102.821C200.055 102.799 199.748 102.647 199.531 102.399C199.314 102.15 199.205 101.826 199.227 101.496C199.249 99.7032 198.789 97.9372 197.896 96.3833C196.027 93.2576 191.931 93.3197 190.352 93.8248C187.459 94.7522 185.607 97.8862 185.049 100.581C184.514 103.191 184.895 105.905 186.128 108.265C187.347 110.542 189.815 111.958 192.002 111.623C192.324 111.578 192.652 111.662 192.913 111.857C193.175 112.052 193.349 112.342 193.398 112.664C193.448 112.987 193.368 113.316 193.177 113.581C192.986 113.845 192.699 114.024 192.378 114.078C192.045 114.129 191.71 114.156 191.373 114.156Z" fill="#263238"/>
<path d="M111.319 114.156C108.397 114.156 105.462 112.322 103.916 109.437C102.412 106.564 101.945 103.259 102.593 100.08C103.317 96.5862 105.764 92.5621 109.62 91.4526C111.48 90.9481 113.451 91.0482 115.25 91.7383L114.357 94.0567C113.062 93.5639 111.646 93.4872 110.306 93.8372C107.463 94.6652 105.611 97.8199 105.04 100.581C104.505 103.191 104.886 105.905 106.119 108.265C107.339 110.546 109.81 111.958 111.993 111.623L112.369 114.078C112.021 114.131 111.67 114.158 111.319 114.156Z" fill="#263238"/>
<path d="M190.352 101.724L189.212 107.979H205.997L207.489 101.786L190.352 101.724Z" fill="#028090"/>
<path d="M115.572 113.167C115.573 113.696 115.417 114.214 115.124 114.654C114.831 115.095 114.414 115.438 113.926 115.641C113.438 115.844 112.9 115.897 112.382 115.794C111.864 115.691 111.388 115.436 111.014 115.062C110.64 114.688 110.386 114.211 110.283 113.692C110.18 113.173 110.233 112.635 110.436 112.146C110.639 111.657 110.981 111.239 111.421 110.946C111.861 110.652 112.378 110.496 112.906 110.497C113.613 110.498 114.29 110.779 114.79 111.28C115.29 111.78 115.571 112.459 115.572 113.167Z" fill="#263238"/>
<path d="M195.556 113.167C195.557 113.696 195.401 114.214 195.108 114.654C194.815 115.095 194.398 115.438 193.91 115.641C193.422 115.844 192.885 115.897 192.366 115.794C191.848 115.691 191.372 115.436 190.998 115.062C190.624 114.688 190.37 114.211 190.267 113.692C190.164 113.173 190.217 112.635 190.42 112.146C190.623 111.657 190.966 111.239 191.405 110.946C191.845 110.652 192.362 110.496 192.89 110.497C193.597 110.498 194.274 110.779 194.774 111.28C195.274 111.78 195.555 112.459 195.556 113.167Z" fill="#263238"/>
<path d="M151.507 61.4045L147.118 78.0804L131.965 79.7116V82.4026L153.256 83.1519L157.257 64.4432L151.507 61.4045Z" fill="#FFBE9D"/>
<path d="M157.893 83.5949C157.893 83.5949 134.218 82.4647 127.476 87.7349C120.735 93.0051 124 101.658 124 101.658L162.101 101.558L165.466 82.2121L157.893 83.5949Z" fill="#263238"/>
<path d="M161.923 96.3585C161.808 96.3614 161.694 96.3531 161.58 96.3337C161.357 96.3088 161.031 96.2757 160.609 96.2219C159.782 96.1184 158.542 95.9445 157.054 95.692C153.148 95.0264 149.283 94.132 145.481 93.0134C143.257 92.3551 141.153 91.6927 139.211 91.2083C137.496 90.7638 135.742 90.4865 133.974 90.3803C132.781 90.3134 131.584 90.3829 130.407 90.5873C129.993 90.637 129.675 90.7447 129.452 90.7819C129.342 90.8092 129.23 90.8299 129.117 90.844C129.222 90.7987 129.332 90.764 129.444 90.7405C129.754 90.6436 130.07 90.5648 130.39 90.5045C131.57 90.2657 132.775 90.1726 133.978 90.2272C135.772 90.3127 137.552 90.5776 139.293 91.0179C141.248 91.4899 143.356 92.1523 145.572 92.8105C149.353 93.9196 153.19 94.8302 157.067 95.5388C158.559 95.812 159.77 96.0066 160.609 96.1391L161.576 96.2923C161.694 96.3046 161.81 96.3268 161.923 96.3585Z" fill="#455A64"/>
<path d="M139.917 91.08C139.26 90.5367 138.559 90.048 137.822 89.6186C137.049 89.2566 136.249 88.9576 135.429 88.7243C135.683 88.7021 135.94 88.7274 136.185 88.7989C136.789 88.9292 137.373 89.1409 137.921 89.4281C138.468 89.717 138.974 90.0776 139.426 90.5004C139.624 90.6615 139.791 90.858 139.917 91.08Z" fill="#455A64"/>
<path d="M160.402 135.142L160.721 145.107L158.72 153.064C158.687 153.2 158.683 153.342 158.708 153.48C158.733 153.618 158.785 153.749 158.863 153.866C158.941 153.982 159.041 154.081 159.159 154.157C159.277 154.233 159.409 154.284 159.547 154.306C159.706 154.335 159.871 154.326 160.026 154.278C160.182 154.231 160.323 154.146 160.439 154.033C161.944 152.559 167.466 147.111 167.396 146.386C167.321 145.558 167.755 135.846 167.755 135.846L160.402 135.142Z" fill="#028090"/>
<g opacity="0.6">
<path opacity="0.6" d="M159.509 154.323L167.363 145.728V146.142C167.368 146.508 167.241 146.863 167.007 147.144C166.383 147.893 164.61 149.926 160.439 154.041C160.32 154.159 160.174 154.246 160.013 154.294C159.852 154.341 159.682 154.348 159.518 154.314L159.509 154.323Z" fill="white"/>
</g>
<g opacity="0.6">
<path opacity="0.6" d="M165.28 142.528C165.154 142.62 165.067 142.757 165.037 142.91C165.007 143.064 165.036 143.223 165.118 143.356C165.205 143.48 165.336 143.566 165.485 143.597C165.633 143.627 165.787 143.601 165.916 143.521C166.046 143.425 166.135 143.284 166.165 143.125C166.196 142.966 166.166 142.802 166.081 142.664C165.979 142.543 165.833 142.467 165.675 142.451C165.516 142.436 165.358 142.483 165.234 142.582" fill="white"/>
</g>
<path d="M161.746 149.943C161.688 149.972 161.456 149.454 160.865 149.177C160.499 149.033 160.109 148.962 159.716 148.97C159.716 148.945 159.832 148.866 160.063 148.829C160.37 148.792 160.681 148.843 160.959 148.977C161.238 149.112 161.472 149.323 161.634 149.586C161.75 149.789 161.766 149.934 161.746 149.943Z" fill="#263238"/>
<path d="M161.047 151.288C160.761 151.132 160.466 150.993 160.163 150.874C159.84 150.817 159.514 150.778 159.187 150.758C159.339 150.66 159.512 150.601 159.692 150.584C159.872 150.567 160.053 150.594 160.22 150.663C160.807 150.82 161.097 151.259 161.047 151.288Z" fill="#263238"/>
<path d="M163.048 148.212C162.625 147.933 162.183 147.685 161.725 147.471C161.241 147.323 160.746 147.212 160.245 147.14C160.766 147.031 161.307 147.074 161.804 147.264C162.3 147.454 162.732 147.783 163.048 148.212Z" fill="#263238"/>
<path d="M163.205 145.181C163.18 145.244 162.626 145.016 161.911 144.999C161.196 144.983 160.63 145.157 160.605 145.095C161.006 144.873 161.459 144.764 161.917 144.78C162.374 144.795 162.819 144.934 163.205 145.181Z" fill="#263238"/>
<path d="M163.184 142.255C162.749 142.117 162.297 142.041 161.841 142.027C161.389 142.079 160.946 142.195 160.526 142.37C160.526 142.35 160.617 142.221 160.845 142.089C161.149 141.917 161.489 141.819 161.839 141.804C162.188 141.789 162.535 141.857 162.853 142.002C163.081 142.114 163.201 142.23 163.184 142.255Z" fill="#263238"/>
<path d="M161.853 141.468C161.827 141.344 161.827 141.215 161.853 141.091C161.884 140.745 161.984 140.409 162.147 140.102C162.243 139.865 162.417 139.669 162.638 139.543C162.715 139.508 162.801 139.498 162.883 139.514C162.966 139.529 163.042 139.57 163.101 139.63C163.208 139.754 163.265 139.913 163.263 140.077C163.243 140.411 163.109 140.727 162.883 140.973C162.657 141.219 162.353 141.379 162.023 141.427C161.693 141.463 161.36 141.401 161.065 141.248C160.771 141.094 160.529 140.857 160.369 140.565C160.329 140.492 160.305 140.41 160.3 140.327C160.294 140.243 160.306 140.159 160.336 140.081C160.375 140.007 160.435 139.946 160.509 139.907C160.583 139.868 160.667 139.852 160.749 139.862C160.995 139.914 161.223 140.03 161.411 140.197C161.682 140.412 161.914 140.673 162.097 140.967C162.17 141.071 162.223 141.187 162.254 141.311C161.991 140.937 161.675 140.603 161.316 140.321C161.148 140.183 160.949 140.088 160.737 140.044C160.691 140.036 160.644 140.043 160.602 140.064C160.561 140.085 160.527 140.118 160.506 140.16C160.491 140.213 160.487 140.269 160.494 140.323C160.501 140.378 160.519 140.431 160.547 140.478C160.692 140.725 160.904 140.925 161.159 141.054C161.414 141.183 161.701 141.236 161.985 141.207C162.267 141.171 162.528 141.039 162.725 140.833C162.921 140.628 163.041 140.361 163.064 140.077C163.07 139.964 163.034 139.852 162.965 139.762C162.934 139.727 162.892 139.702 162.846 139.693C162.8 139.683 162.751 139.689 162.709 139.708C162.527 139.819 162.383 139.982 162.295 140.176C162.075 140.578 161.926 141.015 161.853 141.468Z" fill="#263238"/>
<path d="M165.445 82.2121C165.445 82.2121 155.207 101.6 155.066 104.982C154.926 108.364 155.066 139.543 155.066 139.543H170.913C171.327 139.543 173.703 125.496 173.22 122.262C172.736 119.029 171.029 101.649 171.029 101.649H180.147C180.147 101.649 182.648 98.9708 182.557 95.5719C182.503 93.6965 181.28 89.8628 180.077 87.8301C179.296 86.526 174.29 79.6991 174.29 79.6991L165.445 82.2121Z" fill="#263238"/>
<path d="M164.759 83.5245C164.748 83.5633 164.732 83.6008 164.713 83.6363C164.676 83.7191 164.627 83.8226 164.565 83.9509L163.969 85.1598C163.701 85.6856 163.382 86.3231 163.01 87.0642L162.415 88.2524L161.791 89.6062L158.72 96.2674C158.137 97.5094 157.525 98.8384 156.889 100.2L155.926 102.27C155.615 102.986 155.379 103.733 155.223 104.498C155.066 105.265 154.985 106.046 154.979 106.829C154.955 107.603 154.938 108.369 154.926 109.118C154.926 110.625 154.897 112.074 154.901 113.457C154.901 116.222 154.934 118.714 154.963 120.805C154.992 122.896 155.017 124.573 155.037 125.773C155.037 126.345 155.037 126.796 155.037 127.119C155.037 127.264 155.037 127.38 155.037 127.471C155.037 127.562 155.037 127.591 155.037 127.591C155.03 127.551 155.03 127.51 155.037 127.471C155.037 127.38 155.037 127.264 155.037 127.123C155.037 126.796 155.004 126.349 154.979 125.773C154.938 124.606 154.884 122.912 154.839 120.805C154.793 118.698 154.744 116.226 154.731 113.457C154.731 112.074 154.731 110.621 154.731 109.118C154.731 108.365 154.756 107.599 154.785 106.82C154.789 106.025 154.871 105.232 155.029 104.452C155.189 103.673 155.43 102.913 155.748 102.183L156.715 100.113L158.559 96.1888L161.692 89.5441L162.328 88.1944C162.547 87.7804 162.742 87.3664 162.94 87.0145L163.928 85.1267C164.197 84.6175 164.412 84.22 164.56 83.9344C164.631 83.8102 164.689 83.7108 164.73 83.628C164.771 83.5452 164.755 83.5204 164.759 83.5245Z" fill="#455A64"/>
<path d="M161.444 90.1278C161.115 89.3397 160.839 88.5306 160.617 87.7059C160.327 86.9029 160.091 86.0814 159.91 85.2467C160.296 86.012 160.601 86.8153 160.82 87.6438C161.112 88.4481 161.321 89.2805 161.444 90.1278Z" fill="#455A64"/>
<path d="M173.253 121.654C173.226 121.583 173.21 121.51 173.203 121.434C173.184 121.266 173.155 121.055 173.116 120.801C173.042 120.217 172.947 119.422 172.827 118.458C172.6 116.454 172.294 113.734 171.955 110.728C171.616 107.723 171.339 104.97 171.17 102.987C171.091 102.018 171.025 101.223 170.975 100.639C170.975 100.378 170.942 100.167 170.93 99.9976C170.924 99.9231 170.924 99.8484 170.93 99.774C170.956 99.8444 170.971 99.9184 170.975 99.9934C170.996 100.163 171.025 100.374 171.058 100.631C171.124 101.215 171.215 102.005 171.323 102.974C171.542 104.978 171.839 107.702 172.149 110.708C172.459 113.713 172.753 116.433 172.976 118.441C173.067 119.41 173.145 120.205 173.199 120.789C173.22 121.045 173.236 121.261 173.249 121.43C173.256 121.505 173.258 121.579 173.253 121.654Z" fill="#455A64"/>
<path d="M169.227 30.2882C168.983 28.6322 170.401 27.0383 172.038 26.8438C173.674 26.6492 175.324 27.6718 176.076 29.1663C176.426 29.9179 176.618 30.7337 176.639 31.5628C176.66 32.392 176.511 33.2166 176.2 33.9853C175.787 35.0327 175.022 36.0925 173.91 36.1753C172.798 36.2581 171.947 35.4094 171.211 34.627" fill="#263238"/>
<path d="M157.592 38.502C154.285 31.2446 162.138 27.5972 166.408 28.8061C170.426 29.9446 172.141 31.9484 172.802 34.6394C173.527 37.3392 173.382 40.1991 172.389 42.8117C171.868 44.0786 170.934 45.362 169.578 45.5193" fill="#263238"/>
<path d="M168.971 32.8343C169.311 32.8696 169.625 33.032 169.851 33.289C170.077 33.546 170.198 33.8789 170.19 34.2212L169.417 52.6939C169.388 54.8757 166.21 56.1094 163.874 56.0597C161.522 56.0101 161.444 54.8509 161.394 52.7767C161.341 49.3115 161.341 48.0074 161.341 48.0281C161.341 48.0488 158.365 47.5313 157.749 43.6439C157.439 41.7105 157.538 38.5393 157.699 35.9476C157.848 33.6168 159.39 30.7519 161.713 30.9796L168.971 32.8343Z" fill="#FFBE9D"/>
<path d="M159.22 38.1584C159.218 38.2887 159.267 38.4148 159.357 38.5093C159.446 38.6037 159.57 38.6591 159.7 38.6635C159.763 38.6685 159.827 38.6608 159.887 38.6407C159.948 38.6206 160.003 38.5885 160.051 38.5464C160.099 38.5044 160.138 38.4531 160.166 38.3957C160.193 38.3383 160.209 38.2759 160.212 38.2122C160.213 38.0821 160.164 37.9567 160.074 37.8625C159.985 37.7682 159.862 37.7125 159.733 37.7071C159.669 37.7021 159.605 37.7098 159.545 37.7299C159.485 37.75 159.429 37.782 159.381 37.8241C159.333 37.8662 159.294 37.9175 159.267 37.9749C159.239 38.0323 159.223 38.0947 159.22 38.1584Z" fill="#263238"/>
<path d="M158.398 37.5995C158.46 37.6616 158.84 37.3842 159.373 37.3842C159.906 37.3842 160.303 37.6533 160.361 37.5871C160.419 37.5208 160.328 37.4422 160.154 37.318C159.922 37.1575 159.647 37.0722 159.365 37.0737C159.087 37.071 158.815 37.1597 158.592 37.3262C158.427 37.4504 158.369 37.5705 158.398 37.5995Z" fill="#263238"/>
<path d="M164.457 38.1584C164.456 38.2857 164.503 38.4089 164.589 38.5027C164.675 38.5965 164.793 38.654 164.92 38.6635C164.983 38.6685 165.047 38.6608 165.108 38.6407C165.168 38.6206 165.224 38.5885 165.272 38.5465C165.319 38.5044 165.358 38.4531 165.386 38.3957C165.414 38.3383 165.429 38.2759 165.433 38.2122C165.434 38.0821 165.384 37.9567 165.295 37.8625C165.205 37.7682 165.083 37.7125 164.953 37.7071C164.828 37.7015 164.705 37.7458 164.612 37.8303C164.519 37.9149 164.464 38.0328 164.457 38.1584Z" fill="#263238"/>
<path d="M163.68 37.6988C163.742 37.7609 164.118 37.4836 164.651 37.4836C165.185 37.4836 165.581 37.7527 165.639 37.6906C165.697 37.6285 165.606 37.5415 165.433 37.4173C165.201 37.2561 164.925 37.1708 164.643 37.1731C164.365 37.173 164.095 37.2615 163.87 37.4256C163.68 37.5498 163.635 37.674 163.68 37.6988Z" fill="#263238"/>
<path d="M161.721 41.6774C161.439 41.5903 161.147 41.5375 160.853 41.5201C160.716 41.5201 160.584 41.4787 160.563 41.3876C160.551 41.2435 160.582 41.0989 160.654 40.9736C160.783 40.6424 160.915 40.2946 161.068 39.9303C161.442 39.0464 161.746 38.1341 161.977 37.202C161.529 38.0529 161.152 38.9391 160.849 39.8516L160.46 40.9032C160.375 41.0689 160.35 41.2593 160.39 41.4414C160.41 41.4895 160.441 41.5324 160.481 41.5668C160.52 41.6012 160.567 41.6263 160.617 41.6401C160.693 41.6602 160.77 41.6713 160.849 41.6732C161.138 41.7107 161.431 41.7121 161.721 41.6774Z" fill="#263238"/>
<path d="M161.353 48.024C163.188 48.0575 164.996 47.5772 166.573 46.6371C166.573 46.6371 165.309 49.3115 161.423 48.9472L161.353 48.024Z" fill="#EB996E"/>
<path d="M161.948 42.9691C162.05 42.8415 162.183 42.7419 162.334 42.6797C162.485 42.6174 162.65 42.5945 162.812 42.613C162.931 42.623 163.046 42.6571 163.152 42.7134C163.257 42.7696 163.349 42.8468 163.424 42.9401C163.495 43.0294 163.537 43.1384 163.544 43.2524C163.552 43.3664 163.524 43.4799 163.465 43.5777C163.379 43.6744 163.266 43.7432 163.141 43.7749C163.016 43.8067 162.884 43.8 162.762 43.7557C162.508 43.6659 162.274 43.5251 162.076 43.3417C162.016 43.2989 161.964 43.2456 161.923 43.1843C161.904 43.1548 161.894 43.1203 161.894 43.085C161.894 43.0497 161.904 43.0152 161.923 42.9856" fill="#EB996E"/>
<path d="M163.3 42.05C163.213 42.05 163.209 42.6254 162.713 43.0394C162.217 43.4534 161.597 43.3872 161.593 43.4534C161.589 43.5197 161.729 43.5652 162.006 43.5735C162.347 43.5774 162.679 43.4617 162.944 43.2464C163.196 43.039 163.359 42.7426 163.399 42.4184C163.403 42.1907 163.337 42.0458 163.3 42.05Z" fill="#263238"/>
<path d="M163.424 36.7591C163.477 36.904 164.015 36.8336 164.643 36.9122C165.271 36.9909 165.78 37.1565 165.862 37.0282C165.9 36.9661 165.809 36.8294 165.606 36.6845C165.334 36.5091 165.023 36.4012 164.701 36.3699C164.38 36.3297 164.054 36.3681 163.75 36.4817C163.519 36.5728 163.403 36.6887 163.424 36.7591Z" fill="#263238"/>
<path d="M158.596 36.0428C158.691 36.167 159.059 36.0428 159.505 36.0428C159.952 36.0428 160.332 36.1256 160.411 35.9973C160.448 35.9352 160.411 35.811 160.225 35.6992C160.007 35.5558 159.749 35.4848 159.489 35.4964C159.228 35.5018 158.976 35.587 158.765 35.7406C158.608 35.8607 158.555 35.9849 158.596 36.0428Z" fill="#263238"/>
<path d="M163.651 29.7045C162.334 29.7718 161.054 30.1705 159.931 30.8637C159.301 31.1906 158.742 31.6385 158.286 32.182C157.829 32.7254 157.483 33.3536 157.269 34.0308C157.215 34.1716 157.19 34.3221 157.195 34.4731C157.201 34.624 157.237 34.7721 157.302 34.9085C157.425 35.0644 157.599 35.1725 157.792 35.2141C157.986 35.2556 158.189 35.2281 158.365 35.1362C158.715 34.9454 159.013 34.6709 159.233 34.3372C159.32 34.7021 159.528 35.0266 159.824 35.2573C160.12 35.488 160.485 35.6113 160.859 35.6069C161.234 35.6026 161.596 35.4709 161.886 35.2334C162.177 34.996 162.378 34.6668 162.457 34.2999C162.486 34.6729 162.658 35.02 162.937 35.2691C163.216 35.5182 163.579 35.65 163.953 35.6371C164.325 35.6048 164.68 35.4642 164.974 35.2325C165.268 35.0008 165.487 34.6882 165.606 34.333C165.697 35.0062 165.93 35.6524 166.288 36.2291C166.472 36.5154 166.739 36.7381 167.053 36.867C167.367 36.9959 167.714 37.0247 168.045 36.9495C167.906 37.5219 167.914 38.1202 168.07 38.6883C168.276 39.2348 169.099 48.587 169.653 48.3966C170.207 48.2062 170.186 38.6676 170.31 38.1128C170.585 37.0487 170.724 35.9539 170.723 34.8547C170.76 33.7223 170.394 32.6136 169.689 31.727C168.985 30.8404 167.989 30.2335 166.879 30.015C165.771 29.7604 164.634 29.656 163.498 29.7045" fill="#263238"/>
<path d="M171.43 46.7365C171.43 46.7365 171.393 46.7613 171.31 46.7903C171.194 46.8329 171.073 46.8621 170.951 46.8772C170.376 46.9503 169.792 46.8584 169.267 46.6121C168.743 46.3659 168.299 45.9754 167.987 45.4862C167.564 44.7492 167.386 43.8968 167.479 43.0519C167.541 42.1618 167.747 41.3503 167.842 40.6051C167.936 39.9436 167.994 39.2774 168.016 38.6096C168.016 38.0383 168.016 37.5788 168.016 37.2559C167.998 37.0907 167.998 36.9242 168.016 36.7591C168.065 36.9219 168.094 37.0901 168.103 37.26C168.148 37.7126 168.17 38.1672 168.169 38.6221C168.168 39.2961 168.125 39.9695 168.041 40.6382C167.95 41.4 167.755 42.2156 167.693 43.0726C167.605 43.8747 167.767 44.6846 168.156 45.391C168.496 45.9534 169.019 46.3816 169.636 46.604C170.051 46.7625 170.495 46.8302 170.938 46.8027C171.256 46.782 171.426 46.7158 171.43 46.7365Z" fill="#263238"/>
<path d="M162.283 29.2036C162.433 29.487 162.503 29.8063 162.485 30.1268C162.5 30.9113 162.204 31.6696 161.661 32.2359C161.119 32.8022 160.375 33.1305 159.592 33.149C159.274 33.1795 158.954 33.1223 158.666 32.9834C158.666 32.9461 159.022 33.0455 159.584 32.9834C160.319 32.9334 161.008 32.6117 161.519 32.0807C162.03 31.5497 162.326 30.8474 162.349 30.1102C162.361 29.5596 162.246 29.2118 162.283 29.2036Z" fill="#455A64"/>
<path d="M162.853 33.7824C162.874 33.7824 162.824 34.0474 162.527 34.3372C162.329 34.5151 162.098 34.6512 161.846 34.7373C161.595 34.8234 161.329 34.8577 161.064 34.8381C160.544 34.7917 160.043 34.6198 159.605 34.3372C159.27 34.126 159.088 33.9646 159.104 33.9232C159.305 33.9863 159.496 34.0739 159.675 34.184C160.111 34.411 160.587 34.5516 161.076 34.598C161.562 34.6267 162.041 34.4797 162.428 34.184C162.729 33.9935 162.829 33.7658 162.853 33.7824Z" fill="#455A64"/>
<path d="M172.215 32.5942C172.243 32.9506 172.218 33.3091 172.141 33.6582C172.024 34.5229 171.698 35.3459 171.19 36.0553C170.925 36.407 170.591 36.7009 170.209 36.9187C169.827 37.1366 169.404 37.2739 168.967 37.3221C168.701 37.3461 168.433 37.3194 168.177 37.2434C167.999 37.1896 167.913 37.1358 167.917 37.1234C168.258 37.1845 168.605 37.1998 168.95 37.1689C169.772 37.0352 170.512 36.5907 171.017 35.9269C171.501 35.241 171.832 34.4588 171.988 33.6334C172.042 33.2826 172.118 32.9356 172.215 32.5942Z" fill="#455A64"/>
<path d="M172.926 34.4779C172.964 34.5844 172.985 34.6961 172.988 34.8091C173.016 35.1105 173.023 35.4134 173.009 35.7158C172.987 36.7345 172.623 37.7161 171.976 38.502C171.61 38.9341 171.134 39.2588 170.599 39.4418C170.16 39.5856 169.692 39.6141 169.239 39.5246C168.935 39.4664 168.647 39.3451 168.392 39.1685C168.218 39.0402 168.144 38.945 168.152 38.9367C168.492 39.1528 168.869 39.3018 169.264 39.3755C169.691 39.4369 170.126 39.3958 170.533 39.2555C171.029 39.072 171.471 38.7641 171.814 38.3612C172.428 37.6045 172.794 36.6761 172.86 35.7034C172.926 34.954 172.889 34.4821 172.926 34.4779Z" fill="#455A64"/>
<path d="M118.445 84.5181L110.943 101.703H121.272L128.629 84.3815L118.445 84.5181Z" fill="#455A64"/>
<path d="M112.989 66.24L121.45 82.9076H148.135L147.056 80.73L139.326 80.4982L133.023 66.447C132.832 66.0189 132.521 65.6555 132.127 65.4006C131.734 65.1457 131.276 65.0102 130.808 65.0104H113.741C113.595 65.0052 113.45 65.039 113.321 65.1083C113.191 65.1777 113.083 65.2802 113.007 65.4053C112.93 65.5303 112.888 65.6736 112.885 65.8202C112.882 65.9669 112.918 66.1118 112.989 66.24Z" fill="#E0E0E0"/>
<path d="M126.352 73.7127C126.352 73.915 126.292 74.1127 126.18 74.2808C126.068 74.449 125.908 74.58 125.722 74.6574C125.535 74.7348 125.33 74.7551 125.132 74.7156C124.934 74.6762 124.752 74.5788 124.609 74.4358C124.466 74.2928 124.369 74.1106 124.33 73.9122C124.29 73.7138 124.31 73.5082 124.388 73.3214C124.465 73.1345 124.596 72.9748 124.764 72.8625C124.932 72.7501 125.129 72.6901 125.331 72.6901C125.601 72.6912 125.86 72.7993 126.052 72.9908C126.243 73.1824 126.351 73.4418 126.352 73.7127Z" fill="#263238"/>
<path d="M150.978 82.9408H118.358V84.5347H150.978V82.9408Z" fill="#455A64"/>
<path d="M140.93 83.7398L150.854 101.72H155.599L156.633 99.6622L157.583 97.497L150.978 84.5347L140.93 83.7398Z" fill="#455A64"/>
<path d="M158.174 52.9133C158.174 52.9133 152.413 54.9461 151.173 61.4045L157.257 64.4432L158.174 52.9133Z" fill="#028090"/>
<path d="M158.174 52.9133C158.174 52.9133 154.144 61.9634 154.297 66.9065C154.351 68.6246 155.475 73.1165 155.475 73.1165L157.571 84.2366C157.571 84.2366 173.612 82.0631 173.968 82.0631C174.323 82.0631 173.431 72.9344 173.431 72.9344L176.047 55.3932C176.047 55.3932 174.848 53.0044 169.434 52.1764C166.189 51.6672 158.174 52.9133 158.174 52.9133Z" fill="#028090"/>
<path d="M156.653 58.167C156.691 58.1877 156.269 58.8625 155.761 60.03C155.466 60.7136 155.217 61.4162 155.017 62.1331C154.775 63.0116 154.6 63.907 154.492 64.8117C154.396 65.7178 154.367 66.6296 154.405 67.54C154.442 68.2832 154.529 69.0232 154.665 69.7549C154.897 70.9969 155.161 71.7586 155.12 71.771C155.033 71.6062 154.964 71.4328 154.913 71.2535C154.839 71.0485 154.776 70.8398 154.723 70.6284C154.657 70.38 154.57 70.1026 154.512 69.8004C154.357 69.0635 154.255 68.3163 154.206 67.5648C154.157 66.6425 154.18 65.7178 154.277 64.7993C154.387 63.882 154.571 62.9752 154.826 62.0876C155.039 61.366 155.306 60.6616 155.624 59.9803C155.74 59.7157 155.87 59.4573 156.013 59.2061C156.112 59.0115 156.22 58.8221 156.339 58.639C156.428 58.4714 156.533 58.3132 156.653 58.167Z" fill="#263238"/>
<path d="M160.125 52.8305L160.357 50.3465C160.382 50.0884 160.502 49.8486 160.692 49.673C160.883 49.4974 161.131 49.3982 161.39 49.3943L169.305 49.2743C169.546 49.2714 169.778 49.3601 169.955 49.5223C170.132 49.6845 170.241 49.9081 170.26 50.1478L170.463 52.8264C169.8 54.2332 168.679 55.372 167.284 56.0556C164.957 57.1858 161.341 57.2231 161.341 57.2231L160.125 52.8305Z" fill="#028090"/>
<path d="M162.196 49.415C162.221 49.415 162.105 49.5765 162.056 49.829C162.011 50.1948 162.011 50.5646 162.056 50.9303C162.125 51.4635 162.125 52.0034 162.056 52.5366C161.913 52.0173 161.841 51.4812 161.841 50.9427C161.785 50.5593 161.802 50.169 161.89 49.7918C162.027 49.5061 162.184 49.3943 162.196 49.415Z" fill="#263238"/>
<path d="M164.093 52.4869C163.955 51.9798 163.888 51.4559 163.895 50.9303C163.864 50.5583 163.864 50.1844 163.895 49.8125C163.936 49.5144 164.056 49.3612 164.081 49.3985C164.106 49.4357 164.044 49.5724 164.048 49.8456C164.052 50.1188 164.093 50.508 164.093 50.922C164.163 51.4413 164.163 51.9676 164.093 52.4869Z" fill="#263238"/>
<path d="M166.47 52.4207C166.299 51.9376 166.195 51.4334 166.16 50.922C166.058 50.4154 166.026 49.8972 166.065 49.3819C166.238 49.8688 166.342 50.3774 166.375 50.893C166.476 51.3956 166.508 51.9095 166.47 52.4207Z" fill="#263238"/>
<path d="M168.52 52.578C168.331 52.046 168.231 51.4866 168.223 50.922C168.143 50.3592 168.157 49.787 168.264 49.2287C168.372 49.7743 168.43 50.3286 168.437 50.8847C168.518 51.4453 168.545 52.0122 168.52 52.578Z" fill="#263238"/>
<g opacity="0.3">
<path opacity="0.3" d="M170.091 62.0627C169.773 64.849 169.983 69.6514 170.967 72.2803L175.588 64.6337L170.091 62.0627Z" fill="black"/>
</g>
<path d="M175.617 54.8177L175.642 54.8426C176.952 56.2203 177.911 57.8949 178.436 59.7236L179.287 63.6111L170.194 65.0187C169.694 63.3698 169.575 61.6283 169.847 59.9265C170.293 56.9954 175.617 54.8177 175.617 54.8177Z" fill="#028090"/>
<path d="M179.287 63.6111C179.228 63.632 179.168 63.6472 179.106 63.6566L178.585 63.7519L176.638 64.0706L170.049 65.0725H169.934V64.9525C169.913 64.4018 169.897 63.8305 169.884 63.2426C169.863 61.715 169.884 60.2536 169.975 58.9246C170.038 57.7337 170.402 56.5784 171.033 55.5671C171.457 54.8869 172.039 54.3189 172.728 53.9111C172.914 53.8004 173.11 53.7088 173.315 53.6378C173.383 53.6065 173.455 53.5855 173.53 53.5757C173.53 53.5757 173.24 53.6875 172.769 53.9897C172.113 54.4106 171.563 54.9773 171.161 55.6457C170.563 56.6507 170.222 57.7886 170.169 58.9577C170.074 60.2743 170.078 61.7315 170.103 63.2592C170.103 63.8388 170.132 64.4143 170.145 64.9607L170.025 64.8572L176.638 63.9257L178.593 63.6732L179.122 63.6111C179.177 63.6039 179.233 63.6039 179.287 63.6111Z" fill="#263238"/>
<path d="M160.08 57.902C159.617 57.6321 159.192 57.3022 158.815 56.9209C158.39 56.5926 158.012 56.2083 157.691 55.7782C158.578 56.3762 159.382 57.0905 160.08 57.902Z" fill="#FAFAFA"/>
<path d="M158.852 62.692C158.528 63.0256 158.153 63.3051 157.74 63.52C157.362 63.7947 156.944 64.0097 156.5 64.1576C157.202 63.5537 157.992 63.0621 158.844 62.7003L158.852 62.692Z" fill="#FAFAFA"/>
<path d="M163.924 63.8719C163.85 63.2836 163.85 62.6883 163.924 62.1C163.927 61.5085 163.999 60.9193 164.139 60.3446C164.211 60.9317 164.211 61.5254 164.139 62.1124C164.137 62.7054 164.065 63.2961 163.924 63.8719Z" fill="#FAFAFA"/>
<path d="M168.855 68.6619C168.444 68.2752 168.06 67.8601 167.706 67.4199C167.299 67.032 166.92 66.6171 166.569 66.1779C167.065 66.4662 167.504 66.8437 167.863 67.2916C168.272 67.686 168.608 68.1499 168.855 68.6619Z" fill="#FAFAFA"/>
<path d="M169.549 58.6472C169.195 59.0168 168.79 59.3346 168.347 59.5912C167.941 59.9041 167.494 60.1604 167.02 60.3529C167.375 59.9827 167.782 59.6649 168.227 59.409C168.632 59.0977 169.077 58.8416 169.549 58.6472Z" fill="#FAFAFA"/>
<path d="M165.094 55.0247C164.701 55.4069 164.259 55.7342 163.779 55.9976C163.339 56.324 162.858 56.5912 162.349 56.7925C162.742 56.4097 163.184 56.0811 163.663 55.8155C164.105 55.4932 164.586 55.2275 165.094 55.0247Z" fill="#FAFAFA"/>
<path d="M169.111 56.4655C168.84 56.0647 168.629 55.6269 168.483 55.1655C168.28 54.7269 168.14 54.2612 168.07 53.7827C168.344 54.1831 168.556 54.6228 168.698 55.0868C168.904 55.5231 169.043 55.9878 169.111 56.4655Z" fill="#FAFAFA"/>
<path d="M174.637 58.2829C173.977 57.8239 173.403 57.2505 172.943 56.5897C173.293 56.7901 173.605 57.0508 173.865 57.3597C174.176 57.618 174.438 57.9308 174.637 58.2829Z" fill="#FAFAFA"/>
<path d="M172.36 62.3194C172.229 61.9105 172.169 61.4819 172.182 61.0526C172.121 60.6286 172.133 60.1971 172.219 59.7775C172.409 60.6107 172.457 61.4702 172.36 62.3194Z" fill="#FAFAFA"/>
<path d="M176.952 61.4831C176.471 61.5599 175.98 61.5431 175.505 61.4335C175.021 61.3938 174.549 61.2632 174.113 61.0484C174.593 61.0535 175.071 61.1118 175.539 61.2223C176.018 61.2586 176.492 61.346 176.952 61.4831Z" fill="#FAFAFA"/>
<path d="M158.435 69.8252C158.098 69.3578 157.82 68.8502 157.608 68.3141C157.331 67.8082 157.117 67.2701 156.972 66.712C157.309 67.1794 157.586 67.687 157.798 68.2231C158.076 68.7285 158.29 69.2668 158.435 69.8252Z" fill="#FAFAFA"/>
<path d="M164.507 76.3582C164.118 76.0046 163.78 75.5993 163.502 75.1534C163.17 74.7468 162.892 74.2987 162.676 73.8203C163.065 74.1742 163.404 74.5795 163.684 75.0251C164.018 75.4298 164.294 75.8783 164.507 76.3582Z" fill="#FAFAFA"/>
<path d="M169.525 73.6175C169.099 73.8953 168.637 74.1126 168.152 74.2633C167.693 74.4806 167.204 74.6298 166.701 74.7063C167.586 74.2099 168.536 73.8432 169.525 73.6175Z" fill="#FAFAFA"/>
<path d="M157.162 78.9084C157.36 78.1273 157.695 77.3873 158.15 76.7225C158.08 77.1233 157.94 77.5087 157.736 77.861C157.608 78.2412 157.413 78.5957 157.162 78.9084Z" fill="#FAFAFA"/>
<path d="M153.272 60.1997C153.033 59.8965 152.89 59.5291 152.859 59.144C152.762 58.7709 152.779 58.377 152.909 58.0138C152.994 58.373 153.049 58.7385 153.074 59.1068C153.169 59.4651 153.236 59.8307 153.272 60.1997Z" fill="#FAFAFA"/>
<path d="M160.179 74.7187C159.738 74.6022 159.319 74.4134 158.939 74.1598C158.527 73.9725 158.148 73.721 157.815 73.4146C158.255 73.533 158.674 73.7217 159.055 73.9735C159.465 74.1638 159.844 74.415 160.179 74.7187Z" fill="#FAFAFA"/>
<path d="M164.168 67.8215C163.49 68.6345 162.703 69.3493 161.828 69.9453C162.142 69.5168 162.512 69.1324 162.928 68.8027C163.295 68.4205 163.712 68.0904 164.168 67.8215Z" fill="#FAFAFA"/>
<g opacity="0.3">
<path opacity="0.3" d="M161.725 67.6931C161.925 69.1363 162.568 70.4816 163.564 71.5434C164.598 72.5535 166.197 73.0627 167.541 72.537C167.687 72.4965 167.822 72.4212 167.934 72.3174C168.045 72.2136 168.13 72.0844 168.181 71.9408C168.204 71.7642 168.165 71.5852 168.071 71.4343C167.976 71.2833 167.833 71.1697 167.665 71.1128C167.33 71.005 166.979 70.9546 166.627 70.9638C165.625 70.8979 164.656 70.5765 163.812 70.0302C162.969 69.4839 162.279 68.7307 161.808 67.8422" fill="black"/>
</g>
<path d="M167.098 71.03C167.098 71.03 167.003 71.0631 166.821 71.0797C166.566 71.1055 166.308 71.1055 166.053 71.0797C165.673 71.035 165.3 70.9461 164.941 70.8147C164.055 70.4955 163.268 69.9487 162.659 69.2291C162.412 68.9374 162.2 68.6178 162.027 68.2769C161.905 68.0497 161.809 67.8094 161.741 67.5607C161.708 67.4719 161.69 67.3781 161.688 67.2833C161.729 67.2833 161.841 67.6559 162.159 68.2024C162.345 68.5212 162.563 68.8207 162.808 69.0966C163.112 69.4322 163.451 69.7334 163.821 69.995C164.194 70.2482 164.593 70.4605 165.011 70.6284C165.354 70.7635 165.71 70.8634 166.073 70.9265C166.697 71.0176 167.098 70.9886 167.098 71.03Z" fill="#263238"/>
<path d="M144.344 77.7037L150.329 77.004L154.549 79.7737L170.669 75.8986L171.05 64.8365L178.213 63.8926V77.2855C178.173 78.9114 177.491 80.4551 176.316 81.5781C175.141 82.701 173.57 83.3117 171.947 83.2761L148.321 82.6178L147.316 80.6058L142.245 80.4526L144.344 77.7037Z" fill="#FFBE9D"/>
<path d="M170.479 75.8779C170.38 75.9175 170.278 75.9494 170.173 75.9731L169.297 76.2008L166.061 77.004L155.364 79.5998L154.368 79.8399H154.326H154.293L150.077 77.062H150.135L144.146 77.7575L144.187 77.7326L142.6 79.7488L142.187 80.2787C142.141 80.3422 142.088 80.4005 142.03 80.4526C142.068 80.385 142.111 80.32 142.158 80.258L142.571 79.7116L144.109 77.6664H144.133L150.114 76.9171H150.147H150.172L154.397 79.6826H154.322L155.318 79.4425L166.028 76.9005L169.281 76.1512L170.165 75.9566C170.268 75.9222 170.373 75.8959 170.479 75.8779Z" fill="#EB996E"/>
<path d="M147.614 79.4218C146.842 79.5122 146.064 79.5427 145.287 79.5128H144.873L144.931 79.4921C144.464 79.9226 143.959 80.3106 143.423 80.6513C143.849 80.1802 144.313 79.7454 144.811 79.3514L144.836 79.3265H145.295C146.069 79.2947 146.845 79.3265 147.614 79.4218Z" fill="#EB996E"/>
<path d="M173.451 77.6871C173.143 77.2001 172.743 76.7782 172.273 76.4451C171.775 76.163 171.225 75.9829 170.657 75.9152C170.824 75.8571 171.004 75.8429 171.178 75.8738C171.6 75.9184 172.006 76.0601 172.365 76.2877C172.723 76.5154 173.024 76.8228 173.245 77.1862C173.356 77.3321 173.427 77.5048 173.451 77.6871Z" fill="#EB996E"/>
<path d="M70.0807 166.126H43.09V169.839H70.0807V166.126Z" fill="#263238"/>
<path d="M70.1261 169.889H43.0445V166.08H70.1261V169.889ZM43.1355 169.794H70.0352V166.171H43.1355V169.794Z" fill="#263238"/>
<path d="M45.5948 168.606L49.476 187.803H63.8517L67.6089 169.843L45.5948 168.606Z" fill="#263238"/>
<path d="M45.5948 185.985L47.6656 188.842H65.1372L67.6089 185.985H45.5948Z" fill="#455A64"/>
<path d="M55.5727 169.165C55.5189 169.165 55.4528 160.272 55.4197 149.293C55.3867 138.313 55.4197 129.421 55.4611 129.421C55.5024 129.421 55.5809 138.313 55.614 149.293C55.6471 160.272 55.6264 169.165 55.5727 169.165Z" fill="#263238"/>
<path d="M61.5867 146.908C61.5687 146.979 61.5438 147.048 61.5123 147.115C61.4503 147.268 61.3676 147.459 61.2725 147.69C61.2188 147.819 61.1609 147.955 61.0948 148.104C61.0287 148.253 60.9791 148.431 60.9171 148.609L60.7063 149.189C60.636 149.396 60.5781 149.603 60.5079 149.851C60.1872 150.939 59.9346 152.045 59.7515 153.163C59.544 154.536 59.4061 155.917 59.3381 157.303C59.2405 159.825 59.3124 162.351 59.5531 164.863C59.6399 165.832 59.7267 166.61 59.7928 167.148C59.8176 167.401 59.8424 167.608 59.8589 167.769C59.8645 167.842 59.8645 167.916 59.8589 167.989C59.8329 167.92 59.8162 167.847 59.8093 167.774C59.7804 167.612 59.7473 167.409 59.706 167.161C59.6192 166.623 59.5076 165.844 59.4043 164.88C59.1232 162.362 59.0334 159.826 59.1356 157.295C59.1969 155.902 59.3349 154.513 59.5489 153.134C59.7401 152.013 60.008 150.907 60.3508 149.822C60.4252 149.591 60.4872 149.367 60.5616 149.164L60.7848 148.585L60.9832 148.084C61.0493 147.93 61.1155 147.798 61.1733 147.67L61.4503 147.107C61.4849 147.034 61.5309 146.966 61.5867 146.908Z" fill="#263238"/>
<path d="M60.8964 139.717C60.8735 139.816 60.8446 139.915 60.8096 140.011C60.7393 140.214 60.6443 140.491 60.5285 140.839L60.3219 141.435C60.2557 141.658 60.1813 141.898 60.1028 142.155C59.9457 142.669 59.7639 143.252 59.6027 143.911L59.3299 144.941C59.2472 145.302 59.1645 145.678 59.0777 146.063C58.8876 146.838 58.7512 147.678 58.5776 148.547C58.28 150.311 58.0196 152.273 57.8377 154.323C57.6559 156.372 57.5939 158.355 57.5691 160.148C57.5443 161.94 57.5691 163.555 57.66 164.909C57.6807 165.588 57.7261 166.196 57.7592 166.734C57.7923 167.273 57.8253 167.736 57.8584 168.113C57.8915 168.49 57.908 168.767 57.9245 168.987C57.9301 169.087 57.9301 169.188 57.9245 169.289C57.898 169.191 57.8814 169.091 57.8749 168.991C57.8501 168.771 57.8171 168.486 57.7716 168.121C57.7261 167.757 57.6807 167.293 57.6393 166.743C57.598 166.192 57.5443 165.596 57.5112 164.917C57.4203 163.559 57.3831 161.944 57.3789 160.148C57.3748 158.351 57.4616 156.376 57.6352 154.31C57.8088 152.244 58.0857 150.286 58.3916 148.514C58.5693 147.632 58.714 146.792 58.9083 146.03C58.9992 145.641 59.0901 145.264 59.1728 144.904L59.458 143.877C59.6275 143.219 59.8217 142.635 59.9912 142.122C60.0739 141.865 60.1524 141.629 60.2227 141.406C60.2929 141.182 60.3756 140.992 60.4459 140.814L60.76 139.986C60.7952 139.891 60.841 139.801 60.8964 139.717Z" fill="#263238"/>
<path d="M53.8656 170.738C53.8613 170.703 53.8613 170.669 53.8656 170.634C53.8656 170.556 53.8656 170.456 53.8408 170.328C53.8201 170.046 53.7953 169.653 53.7623 169.152C53.6961 168.113 53.6052 166.639 53.4895 164.818C53.258 161.162 52.9191 156.124 52.3032 150.555C51.9891 147.773 51.6253 145.136 51.2451 142.743C51.0467 141.551 50.8648 140.416 50.654 139.357C50.4432 138.297 50.2407 137.316 50.0753 136.417C49.91 135.519 49.6992 134.716 49.538 134.008C49.3768 133.3 49.2321 132.687 49.1247 132.19C49.0172 131.693 48.9139 131.321 48.8436 131.043C48.8188 130.923 48.794 130.824 48.7775 130.745C48.7711 130.711 48.7711 130.676 48.7775 130.642C48.7945 130.673 48.807 130.706 48.8147 130.741L48.8973 131.035C48.9759 131.308 49.0792 131.689 49.2156 132.174C49.352 132.658 49.5132 133.271 49.6827 133.983C49.8521 134.695 50.0588 135.494 50.2448 136.392C50.4308 137.291 50.6581 138.268 50.8483 139.328C51.0384 140.387 51.2616 141.522 51.46 142.718C51.8485 145.111 52.2164 147.752 52.5305 150.53C53.1464 156.095 53.4647 161.149 53.6631 164.809C53.7623 166.643 53.8325 168.121 53.8739 169.148C53.8739 169.649 53.9069 170.042 53.9152 170.328C53.9152 170.452 53.9152 170.556 53.9152 170.634C53.9039 170.671 53.8872 170.706 53.8656 170.738Z" fill="#263238"/>
<path d="M55.3536 133.722C55.2337 132.48 53.9648 131.511 52.7 131.499C52.0674 131.527 51.4494 131.699 50.893 132.001C50.3365 132.304 49.8562 132.73 49.4884 133.246C48.7609 134.285 48.2351 135.452 47.9384 136.686C47.0869 139.655 46.624 142.772 46.9877 145.84C47.3515 148.908 48.5915 151.926 50.7904 154.091C51.1459 154.447 51.6171 154.799 52.1007 154.691C52.3624 154.615 52.6001 154.472 52.7909 154.277C54.9432 152.303 56.649 149.891 57.7939 147.203C58.9388 144.515 59.4963 141.612 59.4291 138.69C59.396 137.527 59.2431 136.309 58.6024 135.341C57.9617 134.372 56.4531 133.337 55.3577 133.726" fill="#028090"/>
<path d="M45.9172 123.62L44.1399 126.85C44.0985 126.924 44.0448 127.011 43.958 127.015C43.8712 127.019 43.7927 126.937 43.7431 126.858L39.0393 119.646L40.1223 119.029L45.9172 123.62Z" fill="#028090"/>
<g opacity="0.2">
<path opacity="0.2" d="M45.9172 123.62L44.1399 126.85C44.0985 126.924 44.0448 127.011 43.958 127.015C43.8712 127.019 43.7927 126.937 43.7431 126.858L39.0393 119.646L40.1223 119.029L45.9172 123.62Z" fill="black"/>
</g>
<path d="M55.4611 129.437L39.4155 119.952C39.3241 119.917 39.2406 119.864 39.1697 119.797C39.0988 119.729 39.0418 119.649 39.0021 119.559C38.9401 119.323 39.1179 119.091 39.2873 118.913C40.3914 117.767 41.7289 116.873 43.2088 116.291C44.6887 115.708 46.2764 115.452 47.864 115.539C49.451 115.653 50.9863 116.153 52.3373 116.995C53.6882 117.837 54.8143 118.995 55.6181 120.371C57.164 123.14 57.2177 126.808 55.4404 129.437" fill="#028090"/>
<path d="M41.7467 116.926C41.8153 116.907 41.8864 116.899 41.9575 116.901C42.0939 116.901 42.3005 116.868 42.5651 116.872C43.3101 116.862 44.0544 116.92 44.7888 117.046C45.8829 117.234 46.9493 117.558 47.9632 118.011C49.7131 118.799 51.2672 119.966 52.5142 121.427C53.7611 122.887 54.6701 124.606 55.1759 126.46C55.3829 127.18 55.5213 127.917 55.5892 128.663C55.6223 128.924 55.614 129.131 55.6223 129.271C55.6294 129.342 55.6294 129.412 55.6223 129.483C55.6223 129.483 55.5851 129.193 55.5189 128.655C55.4274 127.919 55.2767 127.192 55.0684 126.481C54.3955 124.121 53.0757 121.998 51.2587 120.351C49.4417 118.705 47.2003 117.601 44.7888 117.166C44.0621 117.028 43.3253 116.949 42.5857 116.93C42.0195 116.934 41.7467 116.943 41.7467 116.926Z" fill="#263238"/>
<path d="M53.2869 122.892C53.0283 123.05 52.7505 123.173 52.4603 123.26C51.9477 123.463 51.2203 123.72 50.4349 123.976C49.6496 124.233 48.9056 124.432 48.3683 124.564C48.0831 124.652 47.7893 124.707 47.492 124.73C47.7564 124.602 48.0335 124.502 48.3187 124.432L50.3605 123.79L52.3983 123.132C52.6858 123.023 52.9835 122.942 53.2869 122.892Z" fill="#263238"/>
<path d="M50.7615 116.094C50.9051 116.68 50.9691 117.283 50.9516 117.886C50.9988 118.489 50.9654 119.094 50.8524 119.687C50.7749 119.092 50.7445 118.491 50.7615 117.891C50.7142 117.293 50.7142 116.692 50.7615 116.094Z" fill="#263238"/>
<path d="M39.2667 119.774C39.6421 119.602 40.0322 119.463 40.4323 119.36C41.1597 119.133 42.1765 118.847 43.3256 118.574C44.4747 118.3 45.4915 118.093 46.2189 117.961C46.6267 117.87 47.0416 117.814 47.4589 117.795C47.0666 117.922 46.6661 118.021 46.2603 118.093C45.5163 118.259 44.4912 118.507 43.3669 118.764C42.2427 119.021 41.2217 119.298 40.4736 119.489C40.0781 119.611 39.6749 119.706 39.2667 119.774Z" fill="#263238"/>
<path d="M48.0624 130.733C46.6819 129.685 45.2228 129.491 43.4909 129.545C41.7588 129.655 40.0626 130.089 38.4896 130.824C35.7823 132.008 33.2403 133.759 31.6241 136.235C30.008 138.711 29.4417 141.99 30.6528 144.689C30.7481 144.971 30.9438 145.208 31.2025 145.355C31.5031 145.439 31.8237 145.414 32.1077 145.285C35.1871 144.279 38.2829 143.265 41.1143 141.692C43.9456 140.118 46.5207 137.928 48.0376 135.067C48.4261 134.4 48.6763 133.661 48.7733 132.894C48.8147 132.506 48.7731 132.114 48.6512 131.743C48.5294 131.373 48.33 131.033 48.0665 130.745" fill="#028090"/>
<path d="M48.0872 130.41C48.0183 130.449 47.9447 130.48 47.8681 130.501L47.2233 130.725L46.7563 130.878C46.5868 130.94 46.4049 131.014 46.2107 131.093C45.8221 131.25 45.384 131.408 44.8921 131.64L44.1399 131.983C43.8753 132.103 43.6149 132.252 43.338 132.397C42.78 132.67 42.2179 133.022 41.6144 133.378C39.0369 134.979 36.7433 136.998 34.8275 139.352C34.4141 139.903 33.9801 140.421 33.6371 140.942C33.4593 141.199 33.2816 141.439 33.1245 141.683L32.7112 142.387C32.4219 142.83 32.2069 143.261 32.0003 143.629C31.9011 143.811 31.8019 143.981 31.7192 144.142C31.6365 144.304 31.5704 144.449 31.5084 144.585L31.2025 145.198C31.1737 145.272 31.1348 145.342 31.0868 145.405C31.1069 145.328 31.1346 145.253 31.1695 145.182L31.4381 144.552C31.5001 144.416 31.5663 144.267 31.6365 144.101C31.7068 143.935 31.8101 143.766 31.9052 143.579C32.1036 143.203 32.3185 142.751 32.5913 142.317C32.7319 142.089 32.8724 141.849 33.0047 141.6C33.1369 141.352 33.3353 141.112 33.5089 140.851C33.8479 140.321 34.2653 139.8 34.6911 139.241C35.6544 138.055 36.7104 136.947 37.8489 135.929C39.0002 134.927 40.2304 134.02 41.5276 133.217C42.1352 132.861 42.7056 132.513 43.2677 132.244C43.5488 132.103 43.8133 131.958 44.0944 131.83L44.8591 131.499C45.3427 131.271 45.7973 131.122 46.1941 130.973C46.3925 130.903 46.5744 130.832 46.748 130.774L47.2192 130.634L47.8764 130.447C47.9457 130.43 48.0161 130.417 48.0872 130.41Z" fill="#263238"/>
<path d="M37.3075 136.256C36.2086 136.675 35.0882 137.036 33.9512 137.336C32.8313 137.701 31.6914 138.001 30.5371 138.235C31.636 137.815 32.7563 137.455 33.8933 137.154C35.0139 136.792 36.1537 136.492 37.3075 136.256Z" fill="#263238"/>
<path d="M37.1669 143.658C37.1105 143.312 37.0856 142.961 37.0925 142.611C37.0925 141.965 37.0925 141.066 37.0925 140.081C37.0925 139.096 37.1752 138.197 37.2289 137.552C37.2373 137.2 37.2817 136.851 37.3612 136.508C37.389 136.858 37.389 137.21 37.3612 137.56C37.3364 138.268 37.3116 139.129 37.2827 140.085C37.2537 141.042 37.2372 141.903 37.2165 142.611C37.232 142.961 37.2154 143.311 37.1669 143.658Z" fill="#263238"/>
<path d="M43.5157 140.437C43.462 140.437 43.2925 138.62 43.1396 136.372C42.9867 134.124 42.8999 132.298 42.9536 132.298C43.0073 132.298 43.1727 134.111 43.3297 136.359C43.4868 138.607 43.5695 140.433 43.5157 140.437Z" fill="#263238"/>
<path d="M35.6169 132.12C35.9733 132.075 36.3331 132.064 36.6916 132.087C37.3529 132.087 38.2705 132.112 39.2832 132.145C40.2959 132.178 41.2093 132.219 41.8707 132.256C42.2298 132.261 42.5879 132.296 42.9412 132.36C42.5848 132.405 42.225 132.416 41.8665 132.393C41.2052 132.393 40.2876 132.372 39.2749 132.335C38.2623 132.298 37.3488 132.261 36.6833 132.223C36.3256 132.219 35.9688 132.185 35.6169 132.12Z" fill="#263238"/>
<path d="M51.4807 154.952C51.4623 154.879 51.4539 154.804 51.4559 154.728C51.4559 154.567 51.4559 154.356 51.4269 154.099C51.4021 153.548 51.398 152.758 51.4269 151.772C51.4559 150.787 51.5096 149.624 51.6253 148.332C51.7411 147.04 51.9312 145.62 52.1916 144.142C52.452 142.664 52.7744 141.278 53.1009 140.002C53.4275 138.727 53.7829 137.63 54.1053 136.69C54.4277 135.751 54.7005 135.034 54.932 134.513C55.0312 134.273 55.1097 134.099 55.1759 133.929C55.2012 133.86 55.233 133.793 55.2709 133.73C55.2619 133.804 55.2409 133.875 55.2089 133.941L54.9733 134.55C54.7832 135.063 54.5228 135.792 54.2211 136.744C53.9193 137.696 53.5887 138.814 53.2621 140.056C52.9356 141.298 52.6297 142.698 52.3652 144.171C52.1007 145.645 51.9229 147.069 51.7907 148.34C51.6584 149.611 51.584 150.791 51.5509 151.768C51.5179 152.745 51.4972 153.54 51.4972 154.091C51.4972 154.347 51.4972 154.554 51.4972 154.72C51.4971 154.798 51.4916 154.875 51.4807 154.952Z" fill="#263238"/>
<path d="M52.3239 143.985C52.1362 144.242 51.9214 144.478 51.6832 144.689C51.2699 145.103 50.6788 145.658 50.0092 146.25C49.3396 146.842 48.7072 147.351 48.2401 147.711C48.0012 147.919 47.7407 148.101 47.4631 148.253C47.6734 148.015 47.9059 147.798 48.1575 147.603L49.8811 146.105L51.5923 144.589C51.8164 144.365 52.0614 144.163 52.3239 143.985Z" fill="#263238"/>
<path d="M57.4037 148.08C57.1524 147.783 56.9243 147.467 56.7217 147.136L55.1387 144.817L53.5184 142.524C53.2781 142.218 53.0612 141.894 52.8695 141.555C53.1492 141.825 53.4025 142.122 53.6259 142.441C54.0723 143.008 54.6675 143.803 55.2792 144.71C55.8909 145.616 56.4448 146.448 56.8209 147.061C57.0466 147.382 57.2417 147.723 57.4037 148.08Z" fill="#263238"/>
<path d="M54.7419 135.192C54.7708 135.237 53.0885 136.376 50.9764 137.734C48.8643 139.092 47.1324 140.16 47.1035 140.114C47.0745 140.069 48.7568 138.93 50.8731 137.572C52.9893 136.214 54.7171 135.15 54.7419 135.192Z" fill="#263238"/>
<path d="M59.52 140.346C58.6293 139.603 57.778 138.814 56.9697 137.982C56.1186 137.199 55.3114 136.37 54.5517 135.498C55.4456 136.239 56.2984 137.028 57.1061 137.862C57.9578 138.643 58.7637 139.472 59.52 140.346Z" fill="#263238"/>
<path d="M60.698 140.234L62.1447 140.114C63.1734 140.03 64.1718 139.723 65.0711 139.216C65.5112 138.959 65.9667 138.729 66.4351 138.529C68.2248 137.812 70.2253 137.941 72.1515 137.841C75.3073 137.682 78.3993 136.891 81.2448 135.515C81.4157 135.439 81.5598 135.314 81.6581 135.154C81.9557 134.612 81.4019 134.128 80.9265 133.834C78.4837 132.327 75.9996 130.803 73.2344 130.054C70.4692 129.305 67.3237 129.433 64.9677 131.06C62.1984 132.973 61.1857 136.897 60.7187 140.234" fill="#028090"/>
<path d="M81.6705 134.964C81.5872 134.93 81.5058 134.891 81.4267 134.848L80.7405 134.488C80.1453 134.173 79.2897 133.71 78.2027 133.192C76.9436 132.569 75.6307 132.062 74.2801 131.677C72.6285 131.201 70.8987 131.06 69.192 131.263C67.4829 131.453 65.8688 132.148 64.5544 133.258C63.5278 134.214 62.7064 135.369 62.1405 136.653C61.6321 137.742 61.3139 138.669 61.0907 139.299L60.8303 140.031C60.8046 140.118 60.7714 140.203 60.7311 140.284C60.743 140.194 60.7637 140.105 60.7931 140.019C60.8509 139.833 60.9253 139.584 61.0163 139.278C61.2921 138.373 61.6206 137.486 62 136.62C62.557 135.306 63.382 134.123 64.4221 133.147C65.755 131.997 67.4027 131.275 69.1507 131.077C70.8805 130.867 72.6346 131.008 74.3091 131.491C75.6673 131.89 76.9859 132.414 78.2481 133.055C79.3269 133.594 80.1743 134.074 80.7612 134.409L81.4308 134.803C81.5172 134.846 81.5977 134.9 81.6705 134.964Z" fill="#263238"/>
<path d="M78.1944 136.848C78.1655 136.889 76.2683 135.664 73.9619 134.107C71.6555 132.55 69.8079 131.25 69.8285 131.209C69.8492 131.168 71.7505 132.393 74.0569 133.95C76.3633 135.506 78.2233 136.802 78.1944 136.848Z" fill="#263238"/>
<path d="M76.3757 131.023C75.4106 131.327 74.3918 131.421 73.3873 131.3C73.8786 131.198 74.3779 131.14 74.8795 131.126C75.3743 131.049 75.8749 131.014 76.3757 131.023Z" fill="#263238"/>
<path d="M67.8817 129.499C67.5203 130.356 67.0463 131.161 66.4723 131.892C66.6202 131.451 66.8289 131.033 67.0923 130.65C67.2996 130.231 67.5654 129.843 67.8817 129.499Z" fill="#263238"/>
<path d="M69.5764 137.965C69.2568 137.832 68.952 137.666 68.6671 137.469C68.1173 137.137 67.3775 136.641 66.6004 136.074C65.8233 135.506 65.1165 134.956 64.6123 134.558C64.33 134.358 64.0671 134.133 63.8269 133.883C64.1341 134.044 64.4248 134.234 64.6949 134.451L66.7161 135.92C67.5015 136.492 68.2248 136.993 68.7539 137.357C69.0452 137.535 69.3205 137.739 69.5764 137.965Z" fill="#263238"/>
<path d="M62.8267 146.399C61.4461 146.03 59.7969 147.376 59.52 148.779C59.2431 150.183 59.7639 151.615 60.3756 152.919C61.692 155.815 63.6447 158.375 66.0879 160.408C68.5521 162.433 71.6269 163.563 74.8133 163.617C74.2305 160.901 74.9663 158.061 74.6439 155.3C74.3559 152.867 73.2527 150.605 71.5146 148.882C69.7765 147.159 67.5064 146.078 65.0752 145.815C64.1948 145.72 63.1739 145.583 62.8225 146.399" fill="#028090"/>
<path d="M74.8133 163.617C74.7441 163.594 74.6776 163.563 74.6149 163.526C74.4339 163.424 74.2612 163.307 74.0983 163.178C73.5194 162.673 73.0544 162.051 72.7343 161.352C72.5152 160.938 72.2672 160.458 72.0275 159.941C71.7877 159.423 71.548 158.877 71.2835 158.285C71.0183 157.678 70.7132 157.091 70.37 156.525C70.002 155.922 69.5874 155.349 69.13 154.811C68.1876 153.702 67.1708 152.741 66.2904 151.818C65.4944 151.014 64.7697 150.143 64.1245 149.214C63.6923 148.584 63.3371 147.904 63.0664 147.189C62.9796 146.937 62.9135 146.734 62.8804 146.597C62.8575 146.529 62.8436 146.458 62.8391 146.386C62.8391 146.386 62.9341 146.668 63.1367 147.165C63.4314 147.86 63.8001 148.522 64.2361 149.139C64.8937 150.048 65.6235 150.903 66.4185 151.694C67.3031 152.605 68.324 153.565 69.2788 154.687C69.7467 155.232 70.171 155.814 70.5477 156.426C70.8895 157.001 71.1946 157.597 71.4612 158.21L72.1887 159.866C72.4201 160.379 72.6599 160.851 72.8748 161.278C73.1765 161.97 73.6152 162.594 74.1644 163.112C74.5612 163.468 74.834 163.6 74.8133 163.617Z" fill="#263238"/>
<path d="M67.6751 161.361C67.6834 161.046 67.7263 160.734 67.8032 160.429C67.9107 159.858 68.0884 159.075 68.3281 158.223C68.5679 157.37 68.8241 156.612 69.0308 156.07C69.1213 155.769 69.2476 155.479 69.4069 155.209C69.3511 155.516 69.2681 155.818 69.1589 156.111C68.9853 156.666 68.7456 157.428 68.5141 158.276C68.2827 159.125 68.1008 159.895 67.9355 160.458C67.8785 160.767 67.7913 161.069 67.6751 161.361Z" fill="#263238"/>
<path d="M74.5612 154.691C74.2303 154.642 73.904 154.566 73.5858 154.463C72.9906 154.31 72.168 154.095 71.2546 153.888C70.3411 153.681 69.5061 153.524 68.9027 153.408C68.5718 153.365 68.2453 153.293 67.9272 153.192C68.2613 153.184 68.5953 153.212 68.9234 153.275C69.5351 153.354 70.3783 153.495 71.2959 153.689C72.2135 153.884 73.036 154.132 73.6229 154.323C73.9476 154.413 74.2621 154.536 74.5612 154.691Z" fill="#263238"/>
<path d="M62.5497 156.629C62.5653 156.265 62.6151 155.903 62.6985 155.548C62.8225 154.89 63.0127 153.979 63.2731 152.99C63.5335 152 63.8063 151.11 64.0212 150.472C64.1273 150.122 64.2657 149.783 64.4345 149.458C64.3745 149.817 64.286 150.17 64.17 150.514C63.9881 151.16 63.7319 152.05 63.4756 153.035C63.2193 154.02 63.0044 154.927 62.8515 155.577C62.781 155.936 62.68 156.287 62.5497 156.629Z" fill="#263238"/>
<path d="M71.3909 148.879C71.3909 148.928 69.6591 148.792 67.5387 148.564C65.4183 148.336 63.6988 148.113 63.7071 148.063C64.9956 148.1 66.2814 148.204 67.5593 148.373C68.8443 148.476 70.1232 148.645 71.3909 148.879Z" fill="#263238"/>
<path d="M70.1261 169.827C70.1261 169.881 64.0625 169.922 56.5853 169.922C49.1081 169.922 43.0445 169.881 43.0445 169.827C43.0445 169.773 49.1081 169.732 56.5853 169.732C64.0625 169.732 70.1261 169.773 70.1261 169.827Z" fill="#455A64"/>
<path d="M65.9101 177.639C65.9101 177.693 61.8223 177.738 56.7837 177.738C51.7452 177.738 47.6615 177.693 47.6615 177.639C47.6615 177.585 51.7452 177.544 56.7837 177.544C61.8223 177.544 65.9101 177.606 65.9101 177.639Z" fill="#455A64"/>
<path d="M66.0672 178.757C66.0672 178.811 61.9835 178.852 56.9449 178.852C51.9064 178.852 47.8227 178.811 47.8227 178.757C47.8227 178.703 51.9064 178.662 56.9449 178.662C61.9835 178.662 66.0672 178.703 66.0672 178.757Z" fill="#455A64"/>
<path d="M66.0672 176.72C66.0672 176.774 61.8429 176.815 56.6308 176.815C51.4187 176.815 47.1944 176.774 47.1944 176.72C47.1944 176.666 51.4187 176.625 56.6308 176.625C61.8429 176.625 66.0672 176.666 66.0672 176.72Z" fill="#455A64"/>
</svg>
